<svg id="Layer_1" height="512" viewBox="0 0 512 512" width="512" xmlns="http://www.w3.org/2000/svg" xmlns:xlink="http://www.w3.org/1999/xlink" data-name="Layer 1"><linearGradient id="Blue_2" gradientUnits="userSpaceOnUse" x1="6" x2="506" y1="256" y2="256"><stop offset="0" stop-color="#2bc4f3"/><stop offset=".5" stop-color="#00aeee"/><stop offset="1" stop-color="#0095da"/></linearGradient><linearGradient id="linear-gradient" gradientUnits="userSpaceOnUse" x1="202.541" x2="465.58" y1="136.917" y2="399.956"><stop offset="0"/><stop offset="1" stop-opacity="0"/></linearGradient><circle cx="256" cy="256" fill="url(#Blue_2)" r="250"/><path d="m503.15 293.858-170.093-170.092c-25.687 2.3-45.98 14.868-56.75 34.957l-34.957-34.957c-38.752 3.476-65.25 30.285-65.25 71.089v59.289l213.307 213.307a250.082 250.082 0 0 0 113.743-173.593z" fill="url(#linear-gradient)" opacity=".49"/><path d="m241.35 158.311c-20.156 1.773-29.737 15.023-29.737 31.035h32.58v64.8h-68.093v-59.288c0-40.807 26.5-67.616 65.25-71.092zm91.708 0c-20.161 1.773-29.739 15.023-29.739 31.035h32.581v64.8h-68.093v-59.288c0-40.807 26.5-67.616 65.251-71.092z" fill="#fff"/></svg>