<svg enable-background="new 0 0 64 64" height="512" viewBox="0 0 64 64" width="512" xmlns="http://www.w3.org/2000/svg"><g id="Layer_22"><path d="m60.83 40.28-10.71 18.53c-.73 1.27-2.1 2.05-3.56 2.05-.72 0-1.43-.19-2.05-.55l-18.53-10.72c-.95-.55-1.63-1.43-1.91-2.49-.29-1.06-.14-2.17.41-3.12l10.71-18.52c.73-1.27 2.1-2.05 3.56-2.05.72 0 1.43.19 2.06.55l18.52 10.71c1.96 1.13 2.64 3.65 1.5 5.61z" fill="#81c996"/><g fill="#00a651"><path d="m43.75 32.76c1.06-1.82.44-4.15-1.37-5.21-.58-.34-1.24-.52-1.91-.52-1.35 0-2.62.73-3.3 1.89-.51.88-.65 1.91-.39 2.89s.89 1.81 1.77 2.32c.58.34 1.24.52 1.91.52 1.35 0 2.61-.73 3.29-1.89z"/><path d="m38.02 35.03c-.59-.34-1.25-.51-1.92-.51-1.35 0-2.61.72-3.29 1.88-1.06 1.82-.44 4.15 1.37 5.21.58.34 1.25.52 1.92.52 1.35 0 2.61-.73 3.29-1.89.51-.88.65-1.9.39-2.89-.26-.98-.89-1.8-1.76-2.32z"/><path d="m33.65 42.52c-.58-.34-1.24-.52-1.91-.52-1.35 0-2.61.72-3.29 1.89-1.06 1.81-.45 4.14 1.37 5.2.58.34 1.24.52 1.91.52 1.35 0 2.61-.72 3.29-1.89.52-.88.65-1.9.4-2.89-.26-.98-.89-1.8-1.77-2.31z"/><path d="m55.45 35.18c-.58-.34-1.24-.52-1.91-.52-1.35 0-2.62.72-3.3 1.89-.51.87-.65 1.9-.39 2.88.26.99.89 1.81 1.77 2.32.58.34 1.24.52 1.91.52 1.35 0 2.61-.72 3.29-1.89 1.06-1.81.44-4.15-1.37-5.2z"/><path d="m51.09 42.66c-.59-.34-1.25-.52-1.92-.52-1.35 0-2.61.72-3.29 1.89-.51.88-.65 1.9-.39 2.88.26.99.88 1.81 1.76 2.32.58.34 1.25.52 1.92.52 1.35 0 2.61-.72 3.29-1.89 1.05-1.81.44-4.14-1.37-5.2z"/><path d="m46.723 50.14c-.582-.339-1.245-.519-1.916-.519-1.351 0-2.611.724-3.29 1.889-1.058 1.812-.443 4.147 1.37 5.205.582.339 1.245.519 1.916.519 1.35 0 2.611-.724 3.29-1.888.512-.878.652-1.903.393-2.887-.258-.983-.884-1.807-1.763-2.319z"/></g><path d="m32.23 7.25v21.4c0 2.26-1.84 4.1-4.11 4.1h-21.4c-2.26 0-4.1-1.84-4.1-4.1v-21.4c0-2.27 1.84-4.11 4.1-4.11h21.4c2.27 0 4.11 1.84 4.11 4.11z" fill="#81c996"/><path d="m9.86 14.04c2.1 0 3.8-1.71 3.8-3.81s-1.7-3.8-3.8-3.8-3.81 1.7-3.81 3.8 1.71 3.81 3.81 3.81z" fill="#00a651"/><path d="m9.86 21.86c-2.1 0-3.81 1.7-3.81 3.8s1.71 3.81 3.81 3.81 3.8-1.71 3.8-3.81-1.7-3.8-3.8-3.8z" fill="#00a651"/><path d="m24.99 14.04c2.1 0 3.8-1.71 3.8-3.81s-1.7-3.8-3.8-3.8-3.81 1.7-3.81 3.8 1.71 3.81 3.81 3.81z" fill="#00a651"/><path d="m24.99 21.86c-2.1 0-3.81 1.7-3.81 3.8s1.71 3.81 3.81 3.81 3.8-1.71 3.8-3.81-1.7-3.8-3.8-3.8z" fill="#00a651"/><path d="m17.42 14.14c-2.1 0-3.8 1.71-3.8 3.81s1.7 3.8 3.8 3.8 3.81-1.7 3.81-3.8-1.71-3.81-3.81-3.81z" fill="#00a651"/></g></svg>