<svg id="Layer_1" height="512" viewBox="0 0 512 512" width="512" xmlns="http://www.w3.org/2000/svg" xmlns:xlink="http://www.w3.org/1999/xlink" data-name="Layer 1"><linearGradient id="Blue_2" gradientUnits="userSpaceOnUse" x1="6" x2="506" y1="256" y2="256"><stop offset="0" stop-color="#2bc4f3"/><stop offset=".5" stop-color="#00aeee"/><stop offset="1" stop-color="#0095da"/></linearGradient><linearGradient id="linear-gradient" gradientUnits="userSpaceOnUse" x1="163.853" x2="440.821" y1="147.75" y2="424.718"><stop offset="0"/><stop offset="1" stop-opacity="0"/></linearGradient><circle cx="256" cy="256" fill="url(#Blue_2)" r="250"/><path d="m502.205 299.59-171.168-171.169h-147.855l-13.93 130 6.364 8.239 30.529 30.528h-43.072c0 23.881 8.528 44.461 23.247 59.537l139.405 139.409c90.54-26.244 159.907-102.294 176.48-196.544z" fill="url(#linear-gradient)" opacity=".49"/><path d="m254.689 213.728c55.842 0 94.238 34.181 94.238 83.079 0 50.659-38.83 86.772-93.218 86.772-54.342 0-92.636-35.783-92.636-86.387h63.963c0 16.932 11.9 29.045 28.673 29.045 16.4 0 28.355-12.548 28.355-29.435 0-17.91-12.549-30.138-30.834-30.138h-77.614l-6.364-8.239 13.93-130h147.855v56.844h-96.414l-3.142 28.456h23.2z" fill="#fff"/></svg>