<svg id="Artwork" height="512" viewBox="0 0 512 512" width="512" xmlns="http://www.w3.org/2000/svg"><path d="m378.62 200.76c-9-10.68-21.26-16.09-36.38-16.09h-3.11v-125.28a35.35 35.35 0 0 0 -51.55-31.45 35.38 35.38 0 0 0 -69.17 0 35.06 35.06 0 0 0 -16.17-3.94 35.42 35.42 0 0 0 -35.38 35.38v101.78a35.37 35.37 0 0 0 -50.75 31.84v53.53 73.71c0 2.58.41 63.72 36.28 106.49a40.79 40.79 0 0 1 9.61 26.16v49.11a10 10 0 0 0 10 10h157.13a10 10 0 0 0 10-10v-49.38a23.79 23.79 0 0 1 5.64-15.41c13.16-15.48 36.15-46.86 42.31-83.13 14.02-82.51 11.4-129.8-8.46-153.32zm-74.87-156.76a15.4 15.4 0 0 1 15.38 15.38v125.29h-30.76v-125.28a15.4 15.4 0 0 1 15.38-15.39zm-66.13-8.63a15.38 15.38 0 1 1 30.75 0v149.3h-10.76a23.34 23.34 0 0 0 -20 11.47v-160.76zm-101.51 157.63a15.38 15.38 0 0 1 30.75 0v56.53a15.4 15.4 0 0 1 -15.38 15.38 15.39 15.39 0 0 1 -15.37-15.38zm231.26 157.73c-5.36 31.56-26 59.61-37.84 73.53a43.8 43.8 0 0 0 -10.4 28.36v39.38h-137.13v-39.11a60.79 60.79 0 0 0 -14.24-39c-31.11-37.1-31.6-93.09-31.6-93.65v-38.85a35.35 35.35 0 0 0 50.75-31.85v-19.28-170.87a15.38 15.38 0 0 1 30.76 0v170.86a10 10 0 0 0 20 0v-3.66a46.72 46.72 0 0 0 33.33 28.6l47.9 10.23-3.1 11.9c-15.83 5.55-59.36 25.11-80.84 77.56a10 10 0 0 0 18.51 7.58 116 116 0 0 1 44.6-54c15.44-10.11 28.35-13.52 28.45-13.55a10 10 0 0 0 7.23-7.17l7-26.94a5.41 5.41 0 0 0 .12-.58c0-.1.06-.19.08-.29a10 10 0 0 0 -7.72-11.93l-58.1-12.41c-12.15-2.6-21-13.95-21-27a3.73 3.73 0 0 1 3.44-4h84.63c9.21 0 15.92 2.86 21.1 9 5.7 6.73 22.77 26.99 4.07 137.14z"/></svg>