<svg enable-background="new 0 0 64 64" height="512" viewBox="0 0 64 64" width="512" xmlns="http://www.w3.org/2000/svg"><g id="Layer_18"><path d="m60.68 40.84-10.75 18.51c-.73 1.26-2.09 2.04-3.55 2.04-.72 0-1.44-.19-2.06-.55l-18.51-10.76c-1.96-1.13-2.62-3.65-1.49-5.61l10.76-18.51c.73-1.26 2.09-2.04 3.55-2.04.72 0 1.43.19 2.06.56l18.51 10.75c.95.55 1.62 1.44 1.9 2.5s.14 2.17-.42 3.11z" fill="#81c996"/><g fill="#00a651"><path d="m43.13 34.1c.51-.88.65-1.91.39-2.89s-.89-1.81-1.77-2.32c-.58-.33-1.24-.51-1.91-.51-1.35 0-2.61.72-3.29 1.89-.51.88-.65 1.91-.39 2.89s.89 1.8 1.77 2.32c.58.33 1.24.51 1.91.51 1.35 0 2.61-.73 3.29-1.89z"/><path d="m34 42.24c-.58-.34-1.24-.52-1.91-.52-1.35 0-2.62.73-3.29 1.9-.52.87-.65 1.9-.39 2.88s.89 1.81 1.77 2.32c.58.34 1.24.51 1.9.51 1.36 0 2.62-.72 3.3-1.89 1.05-1.81.43-4.15-1.38-5.2z"/><path d="m54.84 36.5c-.59-.34-1.25-.52-1.92-.52-1.35 0-2.61.73-3.29 1.89-1.05 1.82-.44 4.15 1.38 5.21.58.33 1.24.51 1.91.51 1.35 0 2.62-.72 3.29-1.89.51-.88.65-1.91.39-2.89s-.89-1.8-1.76-2.31z"/><path d="m47.08 49.84c-.58-.34-1.24-.52-1.91-.52-1.35 0-2.62.73-3.29 1.9-.51.87-.65 1.9-.39 2.88.26.99.89 1.81 1.77 2.32.58.34 1.24.52 1.91.52 1.35 0 2.61-.73 3.29-1.9 1.05-1.81.44-4.15-1.38-5.2z"/><path d="m45.8 44.57c.51-.88.64-1.91.38-2.89s-.89-1.8-1.76-2.31c-.59-.34-1.25-.52-1.92-.52-1.35 0-2.61.73-3.29 1.89-.51.88-.65 1.91-.39 2.89.27.98.89 1.81 1.77 2.32.58.33 1.24.51 1.91.51 1.35 0 2.62-.72 3.3-1.89z"/></g><path d="m32.37 6.71v21.41c0 2.26-1.84 4.1-4.1 4.1h-21.4c-2.27 0-4.11-1.84-4.11-4.1v-21.41c0-2.26 1.84-4.1 4.11-4.1h21.4c2.26 0 4.1 1.84 4.1 4.1z" fill="#81c996"/><path d="m25.33 21.43c-2.1 0-3.8 1.71-3.8 3.81 0 2.09 1.7 3.8 3.8 3.8s3.81-1.71 3.81-3.8c0-2.1-1.71-3.81-3.81-3.81z" fill="#00a651"/><path d="m9.8 5.79c-2.1 0-3.8 1.71-3.8 3.8 0 2.1 1.7 3.81 3.8 3.81s3.81-1.71 3.81-3.81c0-2.09-1.71-3.8-3.81-3.8z" fill="#00a651"/><path d="m17.57 13.61c-2.1 0-3.81 1.71-3.81 3.8 0 2.1 1.71 3.81 3.81 3.81s3.8-1.71 3.8-3.81c0-2.09-1.7-3.8-3.8-3.8z" fill="#00a651"/></g></svg>