<svg id="Layer_1" height="512" viewBox="0 0 512 512" width="512" xmlns="http://www.w3.org/2000/svg" xmlns:xlink="http://www.w3.org/1999/xlink" data-name="Layer 1"><linearGradient id="Blue_2" gradientUnits="userSpaceOnUse" x1="6" x2="506" y1="256" y2="256"><stop offset="0" stop-color="#2bc4f3"/><stop offset=".5" stop-color="#00aeee"/><stop offset="1" stop-color="#0095da"/></linearGradient><linearGradient id="linear-gradient" gradientUnits="userSpaceOnUse" x1="196.532" x2="449.692" y1="162.679" y2="415.839"><stop offset="0"/><stop offset="1" stop-opacity="0"/></linearGradient><circle cx="256" cy="256" fill="url(#Blue_2)" r="250"/><path d="m505.532 271.116-136.692-136.692a159.484 159.484 0 0 0 -56.558-10.658c-56.018 0-102.945 31.717-122.034 81.466h-35.733l-.108.428-.428-.428-10.819 43.068 18.66 18.66h-7.842l-10.818 42.91 185.416 185.416c98.054-29.702 170.624-118.01 176.956-224.17z" fill="url(#linear-gradient)" opacity=".49"/><path d="m261.817 309.142c12.954 14.31 32.215 22.207 55.716 22.207a108.225 108.225 0 0 0 37.41-6.4v56.945a139.546 139.546 0 0 1 -42.567 6.341c-57.094 0-102.237-30.646-121.362-78.364h-47.854l10.818-42.909h27.458q-.355-5.231-.356-10.616 0-4.067.21-8.044h-37.59l10.819-43.069h35.733c19.089-49.749 66.016-81.466 122.034-81.466a159.484 159.484 0 0 1 56.558 10.658l-13.908 53.944c-10.226-4.182-25.635-6.919-38.351-6.919-23.42 0-43.085 9.011-56.065 24.578h89.1l-10.877 42.272h-94.715q-.332 3.938-.333 8.044a103.489 103.489 0 0 0 .532 10.616h89.8l-10.877 42.276-61.317-.094z" fill="#fff"/></svg>