<?xml version="1.0"?>
<svg xmlns="http://www.w3.org/2000/svg" id="Artwork" viewBox="0 0 512 512" width="512" height="512"><path d="M378.62,200.76c-9-10.68-21.26-16.09-36.38-16.09h-3.11V59.39a35.35,35.35,0,0,0-51.55-31.45,35.38,35.38,0,0,0-69.17,0A35.06,35.06,0,0,0,202.24,24a35.42,35.42,0,0,0-35.38,35.38V84.15A35.37,35.37,0,0,0,116.11,116V320.26c0,2.58.41,63.72,36.28,106.49A40.79,40.79,0,0,1,162,452.89V502a10,10,0,0,0,10,10H329.13a10,10,0,0,0,10-10V452.62a23.79,23.79,0,0,1,5.64-15.41c13.16-15.48,36.15-46.86,42.31-83.13C401.1,271.57,398.48,224.28,378.62,200.76ZM303.75,44a15.4,15.4,0,0,1,15.38,15.38V184.67H288.37V59.39A15.4,15.4,0,0,1,303.75,44Zm-66.13-8.63a15.38,15.38,0,1,1,30.75,0V184.67H257.61a23.34,23.34,0,0,0-20,11.47V35.38ZM367.37,350.73c-5.36,31.56-26,59.61-37.84,73.53a43.8,43.8,0,0,0-10.4,28.36V492H182V452.89a60.79,60.79,0,0,0-14.24-39c-31.11-37.1-31.6-93.09-31.6-93.65V116a15.38,15.38,0,1,1,30.75,0V230.25a10,10,0,0,0,20,0V59.39a15.38,15.38,0,0,1,30.76,0V230.25a10,10,0,0,0,20,0v-3.66A46.72,46.72,0,0,0,271,255.19l47.9,10.23-3.1,11.9c-15.83,5.55-59.36,25.11-80.84,77.56a10,10,0,0,0,18.51,7.58,116,116,0,0,1,44.6-54c15.44-10.11,28.35-13.52,28.45-13.55a10,10,0,0,0,7.23-7.17l7-26.94a5.41,5.41,0,0,0,.12-.58c0-.1.06-.19.08-.29A10,10,0,0,0,333.23,248l-58.1-12.41c-12.15-2.6-21-13.95-21-27a3.73,3.73,0,0,1,3.44-4h84.63c9.21,0,15.92,2.86,21.1,9C369,220.32,386.07,240.58,367.37,350.73Z"/></svg>
