<svg id="Layer_1" height="512" viewBox="0 0 512 512" width="512" xmlns="http://www.w3.org/2000/svg" xmlns:xlink="http://www.w3.org/1999/xlink" data-name="Layer 1"><linearGradient id="Blue_2" gradientUnits="userSpaceOnUse" x1="6" x2="506" y1="256" y2="256"><stop offset="0" stop-color="#2bc4f3"/><stop offset=".5" stop-color="#00aeee"/><stop offset="1" stop-color="#0095da"/></linearGradient><linearGradient id="linear-gradient" gradientUnits="userSpaceOnUse" x1="178.218" x2="447.044" y1="149.659" y2="418.485"><stop offset="0"/><stop offset="1" stop-opacity="0"/></linearGradient><circle cx="256" cy="256" fill="url(#Blue_2)" r="250"/><path d="m505.835 264.642-189.291-189.291h-43.579c-27 0-49.125 21.75-49.125 48.751v87.33a20.333 20.333 0 0 1 -20.625 20.626h-7.759v48.751l28.384 28.384v78.33a48.891 48.891 0 0 0 14.394 34.785l76.689 76.692c106.939-25.843 187.04-120.422 190.912-234.358z" fill="url(#linear-gradient)" opacity=".49"/><path d="m258.04 256.272c18.237 7.2 29.915 25.763 29.915 48.162v76.91h28.589v55.305h-43.579a49.053 49.053 0 0 1 -49.125-49.126v-86.464a20.251 20.251 0 0 0 -20.625-20.25h-7.759v-48.751h7.759a20.333 20.333 0 0 0 20.625-20.626v-87.332c0-27 22.125-48.751 49.125-48.751h43.579v54.931h-27.839v77.776c0 22.206-12.012 40.997-30.665 48.216z" fill="#fff"/></svg>