<svg id="Layer_1" height="512" viewBox="0 0 512 512" width="512" xmlns="http://www.w3.org/2000/svg" xmlns:xlink="http://www.w3.org/1999/xlink" data-name="Layer 1"><linearGradient id="Blue_2" gradientUnits="userSpaceOnUse" x1="6" x2="506" y1="256" y2="256"><stop offset="0" stop-color="#2bc4f3"/><stop offset=".5" stop-color="#00aeee"/><stop offset="1" stop-color="#0095da"/></linearGradient><linearGradient id="linear-gradient" gradientUnits="userSpaceOnUse" x1="184.166" x2="467.004" y1="115.701" y2="398.539"><stop offset="0"/><stop offset="1" stop-opacity="0"/></linearGradient><circle cx="256" cy="256" fill="url(#Blue_2)" r="250"/><path d="m503.5 291.366-167.6-167.6h-68.091v23.617l-23.618-23.617h-68.091v64.8h32.58c0 16.012-9.581 29.262-29.741 31.036v34.545l212.209 212.204a250.035 250.035 0 0 0 112.352-174.985z" fill="url(#linear-gradient)" opacity=".49"/><path d="m178.94 219.6c20.16-1.774 29.742-15.024 29.742-31.036h-32.582v-64.8h68.09v59.288c0 40.805-26.5 67.614-65.25 71.09zm91.708 0c20.16-1.774 29.737-15.024 29.737-31.036h-32.58v-64.8h68.095v59.288c0 40.805-26.5 67.614-65.25 71.09z" fill="#fff"/></svg>