<svg id="Layer_1" height="512" viewBox="0 0 512 512" width="512" xmlns="http://www.w3.org/2000/svg" xmlns:xlink="http://www.w3.org/1999/xlink" data-name="Layer 1"><linearGradient id="Blue_2" gradientUnits="userSpaceOnUse" x1="6" x2="506" y1="256" y2="256"><stop offset="0" stop-color="#2bc4f3"/><stop offset=".5" stop-color="#00aeee"/><stop offset="1" stop-color="#0095da"/></linearGradient><linearGradient id="linear-gradient" gradientUnits="userSpaceOnUse" x1="166.191" x2="434.541" y1="162.637" y2="430.987"><stop offset="0"/><stop offset="1" stop-opacity="0"/></linearGradient><circle cx="256" cy="256" fill="url(#Blue_2)" r="250"/><path d="m498.787 315.783-172.987-172.983c-16.844-16.321-41.445-25.551-69.746-25.551-51.195 0-93.549 29.716-93.549 85.719l64.776 64.776c-4.243 9.361-6.931 21.06-6.931 36.246v7.137l18.829 18.829h-20.324v64.8l102.578 102.574a250.408 250.408 0 0 0 177.354-181.547z" fill="url(#linear-gradient)" opacity=".49"/><path d="m220.354 303.989c0-42.611 21.1-57.874 38.625-70.567 12.544-8.9 23.056-16.512 23.056-31.692 0-15.946-11.978-25.981-26.194-25.981-14.374 0-27.807 9.6-27.807 27.218h-65.525c0-56 42.354-85.719 93.549-85.719 53.273 0 93.433 32.705 93.433 83.844 0 35.569-19.865 50.933-37.534 64.692-14.037 10.819-26.413 20.355-26.413 38.2v7.137h-65.19zm-1.5 25.966h67.657v64.8h-67.656z" fill="#fff"/></svg>