<svg id="Layer_1" height="512" viewBox="0 0 512 512" width="512" xmlns="http://www.w3.org/2000/svg" xmlns:xlink="http://www.w3.org/1999/xlink" data-name="Layer 1"><linearGradient id="Blue_2" gradientUnits="userSpaceOnUse" x1="6" x2="506" y1="256" y2="256"><stop offset="0" stop-color="#2bc4f3"/><stop offset=".5" stop-color="#00aeee"/><stop offset="1" stop-color="#0095da"/></linearGradient><linearGradient id="linear-gradient" gradientUnits="userSpaceOnUse" x1="132.669" x2="432.136" y1="133.938" y2="433.405"><stop offset="0"/><stop offset="1" stop-opacity="0"/></linearGradient><circle cx="256" cy="256" fill="url(#Blue_2)" r="250"/><path d="m505.968 258.48-115.746-115.747c-32.75-32.8-80.758-50.741-133.151-50.741h-.005c-96.116 0-179.083 61.2-179.083 165.969 0 46.938 17.285 87.449 46.179 116.227l131.812 131.812h.026c137.242 0 248.635-110.593 249.968-247.52z" fill="url(#linear-gradient)" opacity=".49"/><path d="m257.071 91.992c95.8 0 176.946 59.978 176.946 161.15 0 59.162-36.729 90.5-78.2 90.5-23.457 0-42.263-8.761-52.744-24.234-14.109 15.11-33.846 24.1-56.439 24.1-49.489 0-84.638-35.524-84.638-85.332s35.149-85.115 84.638-85.115c21.3 0 40.047 7.939 53.943 21.454l6.087-9.952h29.136v85.069c0 15.2 8.955 23.933 20.884 23.933 14.076-.001 26.316-13.065 26.316-40.423 0-64.977-51.05-111.852-124.49-111.852-74.56 0-128.879 49.125-128.879 116.671 0 65.99 49.013 112.854 117.959 112.854a148.628 148.628 0 0 0 58.077-11.415v48.29c-22.827 8.249-44.19 12.318-65.672 12.318-92.872 0-162.012-68.172-162.012-162.047 0-104.765 82.967-165.969 179.083-165.969zm28.3 165.969c0-19.354-13.989-33.285-33.181-33.285s-33.184 14.148-33.184 33.285 13.994 33.282 33.194 33.282 33.176-13.932 33.176-33.282z" fill="#fff"/></svg>