<svg id="Layer_1" height="512" viewBox="0 0 512 512" width="512" xmlns="http://www.w3.org/2000/svg" xmlns:xlink="http://www.w3.org/1999/xlink" data-name="Layer 1"><linearGradient id="Blue_2" gradientUnits="userSpaceOnUse" x1="6" x2="506" y1="256" y2="256"><stop offset="0" stop-color="#2bc4f3"/><stop offset=".5" stop-color="#00aeee"/><stop offset="1" stop-color="#0095da"/></linearGradient><linearGradient id="linear-gradient" gradientUnits="userSpaceOnUse" x1="143.539" x2="419.224" y1="170.623" y2="446.308"><stop offset="0"/><stop offset="1" stop-opacity="0"/></linearGradient><circle cx="256" cy="256" fill="url(#Blue_2)" r="250"/><path d="m493.389 334.567-194.979-194.978c-14.458-14.482-36.636-22.257-61.571-22.257-44.263 0-79.568 23.435-79.568 66.137 0 15.214 4.285 30.6 24.8 59.839-24.443 16.369-45.533 38.265-45.533 73.8 0 21.669 7.716 40.1 21.13 53.543l132.946 132.949c95.245-13.191 173.333-80.029 202.775-169.033z" fill="url(#linear-gradient)" opacity=".49"/><path d="m306.683 388.892q-6.548-7.11-12.723-13.86c-20.58 12.567-45.121 19.636-72 19.636-50.458 0-85.422-31.433-85.422-77.559 0-35.536 21.09-57.432 45.533-73.8-20.51-29.235-24.8-44.625-24.8-59.839 0-42.7 35.305-66.137 79.568-66.137 43.728 0 78.98 23.911 78.98 65.98 0 35.8-27.046 56.265-55.1 73.271 9.1 11.048 19.619 23.389 31.56 37.178a90.917 90.917 0 0 0 8.115-30.653h56.876c-1.249 29.093-10.3 55.137-25.189 76.224q19.969 22.764 43.381 49.56zm-51.041-56.277c-15.811-17.768-29.13-33.165-40.347-46.627-9.57 8.374-15.785 17.636-15.785 29.085 0 14.591 11.056 24.352 27.909 24.352a63.048 63.048 0 0 0 28.223-6.81zm-38.5-147.339c0 7.549 4.226 17.442 12.668 30.47 15.44-9.207 26.562-18.361 26.562-30.47 0-11.794-8.525-18.986-19.538-18.986-11.324 0-19.687 7.031-19.687 18.986z" fill="#fff"/></svg>