<svg enable-background="new 0 0 64 64" height="512" viewBox="0 0 64 64" width="512" xmlns="http://www.w3.org/2000/svg"><g id="Layer_5"><g fill="#f3f3f3"><path d="m23.62 47.21c0 3.6-2.93 6.53-6.53 6.53s-6.53-2.93-6.53-6.53 2.931-6.53 6.53-6.53c3.6 0 6.53 2.93 6.53 6.53z"/><path d="m23.62 16.79c0 3.6-2.93 6.53-6.53 6.53s-6.53-2.93-6.53-6.53 2.931-6.52 6.53-6.52c3.6 0 6.53 2.92 6.53 6.52z"/><path d="m53.44 47.21c0 3.6-2.931 6.53-6.53 6.53-3.601 0-6.53-2.93-6.53-6.53s2.93-6.53 6.53-6.53 6.53 2.93 6.53 6.53z"/><path d="m40.38 16.79c0-3.6 2.93-6.52 6.53-6.52s6.53 2.92 6.53 6.52-2.931 6.53-6.53 6.53c-3.6 0-6.53-2.93-6.53-6.53z"/></g><path d="m60.21 10.91v42.18c0 3.93-3.19 7.12-7.12 7.12h-42.17c-3.93 0-7.13-3.19-7.13-7.12v-42.18c0-3.92 3.2-7.12 7.13-7.12h42.17c3.93 0 7.12 3.2 7.12 7.12z" fill="#81c996"/><path d="m23.62 16.79c0 3.6-2.93 6.53-6.53 6.53s-6.53-2.93-6.53-6.53 2.931-6.52 6.53-6.52c3.6 0 6.53 2.92 6.53 6.52z" fill="#00a651"/><path d="m23.62 47.21c0 3.6-2.93 6.53-6.53 6.53s-6.53-2.93-6.53-6.53 2.931-6.53 6.53-6.53c3.6 0 6.53 2.93 6.53 6.53z" fill="#00a651"/><path d="m53.44 16.79c0 3.6-2.931 6.53-6.53 6.53-3.601 0-6.53-2.93-6.53-6.53s2.93-6.52 6.53-6.52 6.53 2.92 6.53 6.52z" fill="#00a651"/><path d="m53.44 47.21c0 3.6-2.931 6.53-6.53 6.53-3.601 0-6.53-2.93-6.53-6.53s2.93-6.53 6.53-6.53 6.53 2.93 6.53 6.53z" fill="#00a651"/></g></svg>