<svg id="Layer_1" height="512" viewBox="0 0 512 512" width="512" xmlns="http://www.w3.org/2000/svg" xmlns:xlink="http://www.w3.org/1999/xlink" data-name="Layer 1"><linearGradient id="Blue_2" gradientUnits="userSpaceOnUse" x1="6" x2="506" y1="256" y2="256"><stop offset="0" stop-color="#2bc4f3"/><stop offset=".5" stop-color="#00aeee"/><stop offset="1" stop-color="#0095da"/></linearGradient><linearGradient id="linear-gradient" gradientUnits="userSpaceOnUse" x1="207.839" x2="467.605" y1="138.171" y2="397.936"><stop offset="0"/><stop offset="1" stop-opacity="0"/></linearGradient><circle cx="256" cy="256" fill="url(#Blue_2)" r="250"/><path d="m495.109 329.169-188.972-188.969c-12.251-12.062-29.763-19.2-50.137-19.2-39.982 0-68.754 27.32-68.754 65.333 0 18.423 6.8 34.378 18.393 45.909l213.332 213.332a250.187 250.187 0 0 0 76.138-116.405z" fill="url(#linear-gradient)" opacity=".49"/><path d="m187.245 186.331c0-38.013 28.772-65.331 68.755-65.331 39.854 0 68.756 27.32 68.756 65.333 0 37.884-28.9 65.335-68.756 65.335-39.983-.002-68.755-27.453-68.755-65.337zm68.755 27.392c15.4 0 26.449-11.175 26.449-27.388 0-16.116-11.047-27.389-26.449-27.389s-26.447 11.175-26.447 27.387 11.047 27.388 26.447 27.388z" fill="#fff"/></svg>