<svg id="Artwork" height="512" viewBox="0 0 512 512" width="512" xmlns="http://www.w3.org/2000/svg"><path d="m378.32 201.52c-9-10.65-21.21-16.05-36.31-16.05h-3.07v-150.16a35.31 35.31 0 1 0 -70.62 0v68.82a35.31 35.31 0 0 0 -50.6 30.63 35.3 35.3 0 0 0 -50.37 27.38 35.3 35.3 0 0 0 -50.91 31.67v126.92c0 2.57.41 63.57 36.2 106.23a40.64 40.64 0 0 1 9.52 26.04v49a10 10 0 0 0 10 10h156.78a10 10 0 0 0 10-10v-49.25a23.72 23.72 0 0 1 5.62-15.35c13.13-15.45 36.07-46.75 42.21-82.93 13.98-82.31 11.37-129.47-8.45-152.95zm-90-166.21a15.31 15.31 0 1 1 30.62 0v150.16h-30.62zm-50.63 100.69a15.32 15.32 0 0 1 30.63 0v49.52h-10.71a23.3 23.3 0 0 0 -19.92 11.37zm0 127v-35.57a46.77 46.77 0 0 0 30.63 27.78v15a15.32 15.32 0 1 1 -30.63 0zm-50.62-96.43a15.31 15.31 0 0 1 30.62 0v96.43a15.31 15.31 0 0 1 -30.62 0zm-50.63 27.25a15.32 15.32 0 0 1 30.63 0v56.38a15.32 15.32 0 0 1 -30.63 0v-56.39zm230.61 157.3c-5.34 31.46-25.93 59.44-37.73 73.32a43.78 43.78 0 0 0 -10.38 28.31v39.25h-136.78v-39a60.64 60.64 0 0 0 -14.16-38.89c-31-37-31.52-92.83-31.52-93.39v-38.72a35.28 35.28 0 0 0 34.8-2.39 35.27 35.27 0 0 0 53 11.05 35.29 35.29 0 0 0 64-20.49v-10.6l30.33 6.48-3.08 11.83c-15.8 5.55-59.21 25.07-80.62 77.37a10 10 0 1 0 18.5 7.58 115.67 115.67 0 0 1 44.52-53.83c15.39-10.09 28.27-13.49 28.37-13.51a10 10 0 0 0 7.23-7.18l7-26.86c.05-.2.08-.39.12-.58s.05-.2.08-.3a10 10 0 0 0 -7.73-11.9l-52.66-11.25h-.08l-5.22-1.12c-12.1-2.58-20.88-13.89-20.88-26.9a3.7 3.7 0 0 1 3.41-3.92h84.43c9.19 0 15.87 2.84 21 8.95 5.64 6.63 22.71 26.84 4.05 136.69z"/></svg>