<svg id="Layer_1" height="512" viewBox="0 0 512 512" width="512" xmlns="http://www.w3.org/2000/svg" xmlns:xlink="http://www.w3.org/1999/xlink" data-name="Layer 1"><linearGradient id="Blue_2" gradientUnits="userSpaceOnUse" x1="6" x2="506" y1="256" y2="256"><stop offset="0" stop-color="#2bc4f3"/><stop offset=".5" stop-color="#00aeee"/><stop offset="1" stop-color="#0095da"/></linearGradient><linearGradient id="linear-gradient" gradientUnits="userSpaceOnUse" x1="168.269" x2="432.804" y1="168.19" y2="432.725"><stop offset="0"/><stop offset="1" stop-opacity="0"/></linearGradient><circle cx="256" cy="256" fill="url(#Blue_2)" r="250"/><path d="m497.253 321.718-167.353-167.352c-18.586-18.867-43.8-29.335-73.9-29.335-66.5 0-109.159 51.1-109.159 130.971 0 44.389 13.314 79.975 36.573 102.785l138.43 138.432a250.449 250.449 0 0 0 175.409-175.501z" fill="url(#linear-gradient)" opacity=".49"/><path d="m146.84 256c0-79.876 42.657-130.971 109.159-130.971s109.161 51.097 109.161 130.971c0 79.658-42.879 130.967-109.161 130.967s-109.159-51.307-109.159-130.967zm149.953.213c0-45.941-14.738-71.772-40.794-71.772-26.273 0-40.8 25.613-40.8 71.559s14.524 71.554 40.8 71.554 40.794-25.393 40.794-71.339z" fill="#fff"/></svg>