<svg enable-background="new 0 0 64 64" height="512" viewBox="0 0 64 64" width="512" xmlns="http://www.w3.org/2000/svg"><g id="Layer_3"><path d="m38.53 43.48c0 3.6-2.93 6.53-6.53 6.53s-6.53-2.93-6.53-6.53 2.93-6.53 6.53-6.53 6.53 2.93 6.53 6.53z" fill="#f3f3f3"/><path d="m25.47 20.52c0-3.6 2.93-6.53 6.53-6.53s6.53 2.93 6.53 6.53-2.93 6.53-6.53 6.53-6.53-2.93-6.53-6.53z" fill="#f3f3f3"/><path d="m60.21 10.91v42.18c0 3.93-3.19 7.12-7.12 7.12h-42.18c-3.93 0-7.12-3.19-7.12-7.12v-42.18c0-3.92 3.19-7.12 7.12-7.12h42.18c3.93 0 7.12 3.2 7.12 7.12z" fill="#81c996"/><path d="m38.53 43.48c0 3.6-2.93 6.53-6.53 6.53s-6.53-2.93-6.53-6.53 2.93-6.53 6.53-6.53 6.53 2.93 6.53 6.53z" fill="#f3f3f3"/><path d="m25.47 20.52c0-3.6 2.93-6.53 6.53-6.53s6.53 2.93 6.53 6.53-2.93 6.53-6.53 6.53-6.53-2.93-6.53-6.53z" fill="#f3f3f3"/><g fill="#00a651"><path d="m38.53 20.52c0 3.6-2.93 6.53-6.53 6.53s-6.53-2.93-6.53-6.53 2.93-6.53 6.53-6.53 6.53 2.93 6.53 6.53z"/><path d="m38.53 43.48c0 3.6-2.93 6.53-6.53 6.53s-6.53-2.93-6.53-6.53 2.93-6.53 6.53-6.53 6.53 2.93 6.53 6.53z"/></g></g></svg>