<svg enable-background="new 0 0 64 64" height="512" viewBox="0 0 64 64" width="512" xmlns="http://www.w3.org/2000/svg"><g id="Layer_17"><path d="m32.43 6.73v21.4c0 2.27-1.85 4.11-4.11 4.11h-21.4c-2.26 0-4.11-1.84-4.11-4.11v-21.4c0-2.26 1.85-4.11 4.11-4.11h21.4c2.26 0 4.11 1.85 4.11 4.11z" fill="#81c996"/><path d="m60.62 40.91-10.86 18.44c-.74 1.25-2.1 2.03-3.55 2.03-.73 0-1.45-.2-2.08-.57l-18.44-10.86c-.94-.56-1.61-1.45-1.89-2.52-.28-1.06-.12-2.16.44-3.11l10.86-18.44c.73-1.25 2.09-2.02 3.54-2.02.73 0 1.45.2 2.08.57l18.44 10.86c.95.56 1.62 1.45 1.9 2.51.27 1.06.12 2.17-.44 3.11z" fill="#81c996"/><g fill="#00a651"><path d="m43.11 34.06c1.06-1.81.46-4.14-1.35-5.21-.59-.34-1.26-.53-1.93-.53-1.35 0-2.6.72-3.28 1.88-1.07 1.81-.46 4.14 1.34 5.21.59.34 1.26.53 1.93.53 1.35 0 2.6-.72 3.29-1.88z"/><path d="m33.92 42.15c-.58-.35-1.25-.53-1.92-.53-1.35 0-2.61.72-3.29 1.87-.51.88-.66 1.9-.4 2.89.25.98.88 1.81 1.75 2.32.59.35 1.25.53 1.93.53 1.34 0 2.6-.72 3.28-1.87.52-.88.66-1.9.41-2.89-.26-.98-.88-1.81-1.76-2.32z"/><path d="m54.79 36.53c-.58-.34-1.25-.53-1.93-.53-1.34 0-2.6.72-3.28 1.88-1.06 1.8-.46 4.14 1.35 5.21.59.34 1.25.53 1.93.53 1.34 0 2.6-.72 3.28-1.88.52-.87.66-1.9.41-2.88-.26-.99-.88-1.81-1.76-2.33z"/><path d="m46.96 49.83c-.58-.35-1.25-.53-1.93-.53-1.34 0-2.6.72-3.28 1.87-.52.88-.66 1.9-.41 2.89.26.98.88 1.81 1.76 2.32.58.35 1.25.53 1.93.53 1.34 0 2.6-.72 3.28-1.87 1.06-1.81.46-4.15-1.35-5.21z"/><path d="m25.39 21.45c-2.1 0-3.81 1.7-3.81 3.8s1.71 3.81 3.81 3.81 3.8-1.71 3.8-3.81-1.7-3.8-3.8-3.8z"/><path d="m9.85 5.81c-2.09 0-3.8 1.7-3.8 3.8s1.71 3.81 3.8 3.81c2.1 0 3.81-1.71 3.81-3.81s-1.71-3.8-3.81-3.8z"/><path d="m17.62 13.63c-2.1 0-3.8 1.7-3.8 3.8s1.7 3.81 3.8 3.81 3.81-1.71 3.81-3.81-1.71-3.8-3.81-3.8z"/></g></g></svg>