<svg id="Layer_1" height="512" viewBox="0 0 512 512" width="512" xmlns="http://www.w3.org/2000/svg" xmlns:xlink="http://www.w3.org/1999/xlink" data-name="Layer 1"><linearGradient id="Blue_2" gradientUnits="userSpaceOnUse" x1="6" x2="506" y1="256" y2="256"><stop offset="0" stop-color="#2bc4f3"/><stop offset=".5" stop-color="#00aeee"/><stop offset="1" stop-color="#0095da"/></linearGradient><linearGradient id="linear-gradient" gradientUnits="userSpaceOnUse" x1="207.093" x2="399.59" y1="273.445" y2="465.943"><stop offset="0"/><stop offset="1" stop-opacity="0"/></linearGradient><linearGradient id="linear-gradient-2" x1="223.1" x2="482.321" xlink:href="#linear-gradient" y1="122.322" y2="381.543"/><circle cx="256" cy="256" fill="url(#Blue_2)" r="250"/><path d="m221.953 258.584v64.8l23.057 23.056c-4.836 4.319-11.539 7.216-20.215 7.979v34.546l105.736 105.735a250.267 250.267 0 0 0 117.269-78.362l-157.753-157.754z" fill="url(#linear-gradient)" opacity=".49"/><path d="m222.384 123.038v64.8l226.822 226.82a249.411 249.411 0 0 0 46.148-86.312l-205.307-205.308z" fill="url(#linear-gradient-2)" opacity=".49"/><path d="m224.8 354.416c20.161-1.773 29.739-15.022 29.739-31.035h-32.586v-64.8h68.094v59.289c0 40.8-26.5 67.613-65.252 71.089zm-2.411-231.378h67.663v64.8h-67.668z" fill="#fff"/></svg>