<svg id="Layer_1" height="512" viewBox="0 0 512 512" width="512" xmlns="http://www.w3.org/2000/svg" xmlns:xlink="http://www.w3.org/1999/xlink" data-name="Layer 1"><linearGradient id="Blue_2" gradientUnits="userSpaceOnUse" x1="6" x2="506" y1="256" y2="256"><stop offset="0" stop-color="#2bc4f3"/><stop offset=".5" stop-color="#00aeee"/><stop offset="1" stop-color="#0095da"/></linearGradient><linearGradient id="linear-gradient" gradientUnits="userSpaceOnUse" x1="114.409" x2="432.777" y1="114.408" y2="432.776"><stop offset="0"/><stop offset="1" stop-opacity="0"/></linearGradient><circle cx="256" cy="256" fill="url(#Blue_2)" r="250"/><path d="m506 256q0-9.81-.746-19.433l-134.625-134.625h-54.108l-45.69 80.377-60.441-60.442c-12.985-12.819-30.637-19.935-51.724-19.935-46.4 0-76.169 34.454-76.169 88.315 0 29.219 8.852 52.78 24.369 68.194l76.947 76.949-42.441 74.66 95.2 95.2q9.619.738 19.432.746c138.067-.006 249.996-111.935 249.996-250.006z" fill="url(#linear-gradient)" opacity=".49"/><g fill="#fff"><path d="m429.5 321.744c0-53.861-29.767-88.315-76.169-88.315s-76.168 34.454-76.168 88.315c0 53.715 29.916 88.314 76.168 88.314s76.169-34.599 76.169-88.314zm-76.166 48.256c-18.333 0-28.467-17.271-28.467-48.251s10.133-48.258 28.467-48.258c18.181 0 28.465 17.418 28.465 48.4s-10.132 48.109-28.465 48.109z"/><path d="m82.5 190.258c0 53.715 29.916 88.313 76.169 88.313s76.169-34.6 76.169-88.313c0-53.862-29.767-88.316-76.169-88.316s-76.169 34.458-76.169 88.316zm76.169-48.253c18.181 0 28.464 17.418 28.464 48.4s-10.133 48.103-28.467 48.103-28.466-17.271-28.466-48.25 10.133-48.253 28.466-48.253z"/><path d="m316.521 101.942-175.149 308.116h54.108l175.149-308.116z"/></g></svg>