<svg enable-background="new 0 0 64 64" height="512" viewBox="0 0 64 64" width="512" xmlns="http://www.w3.org/2000/svg"><g id="Layer_10"><path d="m60.78 41.15-10.86 18.44c-.74 1.24-2.09 2.02-3.54 2.02-.729 0-1.45-.2-2.09-.57l-18.44-10.86c-.939-.56-1.609-1.45-1.89-2.51-.27-1.07-.12-2.17.44-3.12l10.86-18.44c.74-1.24 2.09-2.02 3.54-2.02.73 0 1.45.2 2.09.57l18.44 10.86c.939.56 1.61 1.45 1.89 2.51.27 1.07.12 2.17-.44 3.12z" fill="#81c996"/><g fill="#00a651"><path d="m43.27 34.29c1.061-1.8.461-4.14-1.35-5.21-.59-.34-1.25-.52-1.93-.52-1.351 0-2.601.71-3.28 1.87-1.07 1.81-.46 4.14 1.34 5.21.59.35 1.26.53 1.931.53 1.349 0 2.609-.72 3.289-1.88z"/><path d="m34.09 42.38c-.59-.35-1.26-.53-1.93-.53-1.351 0-2.601.72-3.28 1.88-.52.87-.67 1.9-.41 2.88.25.98.88 1.81 1.75 2.33.59.34 1.261.52 1.931.52 1.35 0 2.6-.71 3.279-1.87.521-.88.66-1.9.41-2.88-.26-.99-.88-1.82-1.75-2.33z"/><path d="m54.96 36.76c-.59-.34-1.26-.53-1.94-.53-1.34 0-2.6.72-3.279 1.88-1.061 1.81-.46 4.14 1.35 5.21.59.35 1.25.53 1.93.53 1.341 0 2.601-.72 3.28-1.88.521-.87.66-1.9.41-2.88-.261-.99-.881-1.81-1.751-2.33z"/><path d="m47.12 50.06c-.58-.35-1.25-.53-1.93-.53-1.341 0-2.601.72-3.28 1.87-.521.88-.66 1.91-.4 2.89.25.98.87 1.81 1.75 2.33.58.34 1.25.52 1.931.52 1.34 0 2.6-.71 3.279-1.87 1.07-1.81.46-4.15-1.35-5.21z"/></g><path d="m32.26 6.5v21.4c0 2.26-1.84 4.11-4.1 4.11h-21.4c-2.27 0-4.109-1.85-4.109-4.11v-21.4c0-2.27 1.84-4.11 4.109-4.11h21.4c2.26 0 4.1 1.84 4.1 4.11z" fill="#81c996"/><path d="m17.46 13.39c-2.1 0-3.81 1.71-3.81 3.81s1.71 3.8 3.81 3.8 3.8-1.7 3.8-3.8-1.7-3.81-3.8-3.81z" fill="#00a651"/></g></svg>