<svg id="Layer_1" height="512" viewBox="0 0 512 512" width="512" xmlns="http://www.w3.org/2000/svg" xmlns:xlink="http://www.w3.org/1999/xlink" data-name="Layer 1"><linearGradient id="Blue_2" gradientUnits="userSpaceOnUse" x1="6" x2="506" y1="256" y2="256"><stop offset="0" stop-color="#2bc4f3"/><stop offset=".5" stop-color="#00aeee"/><stop offset="1" stop-color="#0095da"/></linearGradient><linearGradient id="linear-gradient" gradientUnits="userSpaceOnUse" x1="176.566" x2="432.778" y1="176.562" y2="432.774"><stop offset="0"/><stop offset="1" stop-opacity="0"/></linearGradient><circle cx="256" cy="256" fill="url(#Blue_2)" r="250"/><path d="m500.931 306.329-92.6-92.6-56.858 1.363c.377 15.779-2.4 27.9-7.627 33.25-1.631 1.67-4.607 3.89-11.595 3.89-15.838 0-33.236-6.933-63.935-21.5-25.869-13.635-55.8-27.839-85.782-27.839-21.3 0-39.955 7.483-53.936 21.639-11.663 11.81-25.464 34.183-24.969 73.694l202.707 202.704a250.3 250.3 0 0 0 194.595-194.601z" fill="url(#linear-gradient)" opacity=".49"/><path d="m332.252 309.108c-29.181 0-55.012-11.188-88.319-26.994-17.7-9.193-40.539-22.347-61.4-22.347-8.8 0-12.313 3.559-13.468 4.729-5.636 5.705-8.757 17.74-8.567 33.018l-56.87.711c-.495-39.511 13.306-61.884 24.969-73.694 13.981-14.156 32.632-21.639 53.936-21.639 29.982 0 59.913 14.2 85.782 27.839 30.7 14.569 48.1 21.5 63.935 21.5 6.988 0 9.964-2.22 11.595-3.89 5.224-5.352 8-17.471 7.626-33.25l56.859-1.363c.776 32.369-7.229 57.382-23.791 74.345-13.432 13.762-31.513 21.035-52.287 21.035z" fill="#fff"/></svg>