<svg enable-background="new 0 0 64 64" height="512" viewBox="0 0 64 64" width="512" xmlns="http://www.w3.org/2000/svg"><g id="Layer_24"><path d="m32.02 7.15v21.4c0 2.26-1.85 4.11-4.11 4.11h-21.4c-2.27 0-4.11-1.85-4.11-4.11v-21.4c0-2.27 1.84-4.11 4.11-4.11h21.4c2.26 0 4.11 1.84 4.11 4.11z" fill="#81c996"/><path d="m60.86 41.67-12.28 17.54c-.76 1.09-2.021 1.75-3.36 1.75-.85 0-1.66-.26-2.359-.74l-17.531-12.28c-.9-.63-1.5-1.57-1.69-2.65s.05-2.17.68-3.07l12.27-17.53c.771-1.1 2.03-1.75 3.37-1.75.85 0 1.66.26 2.35.74l17.54 12.27c.9.63 1.5 1.57 1.69 2.65.19 1.09-.05 2.18-.68 3.07z" fill="#81c996"/><g fill="#00a651"><path d="m48.11 34.06c-.641-.45-1.4-.69-2.181-.69-1.239 0-2.41.61-3.12 1.62-1.199 1.72-.779 4.1.94 5.3.64.45 1.39.69 2.18.69 1.24 0 2.41-.6 3.12-1.62 1.201-1.72.781-4.1-.939-5.3z"/><path d="m41.43 43.6c-.64-.45-1.399-.69-2.18-.69-1.24 0-2.41.61-3.12 1.63-1.2 1.72-.78 4.09.94 5.3.64.45 1.39.69 2.18.69 1.24 0 2.41-.61 3.12-1.63 1.2-1.72.78-4.09-.94-5.3z"/><path d="m17.57 8.32c-2.1 0-3.81 1.7-3.81 3.8s1.71 3.81 3.81 3.81 3.8-1.71 3.8-3.81-1.7-3.8-3.8-3.8z"/><path d="m17.57 19.97c-2.1 0-3.81 1.7-3.81 3.8s1.71 3.81 3.81 3.81 3.8-1.71 3.8-3.81-1.7-3.8-3.8-3.8z"/></g></g></svg>