<?xml version="1.0" encoding="iso-8859-1"?>
<!-- Generator: Adobe Illustrator 19.0.0, SVG Export Plug-In . SVG Version: 6.00 Build 0)  -->
<svg version="1.1" id="Capa_1" xmlns="http://www.w3.org/2000/svg" xmlns:xlink="http://www.w3.org/1999/xlink" x="0px" y="0px"
	 viewBox="0 0 511.979 511.979" style="enable-background:new 0 0 511.979 511.979;" xml:space="preserve">
<polygon style="fill:#F44336;" points="144,175.98 272,175.98 272,47.98 496,255.98 272,463.98 272,335.98 144,335.98 "/>
<path d="M272,479.98c-8.837,0-16-7.163-16-16v-112H144c-8.837,0-16-7.163-16-16v-160c0-8.837,7.163-16,16-16h112v-112
	c0.011-8.837,7.183-15.991,16.019-15.981c4.028,0.005,7.907,1.529,10.861,4.269l224,208c6.468,6.02,6.832,16.145,0.811,22.613
	c-0.261,0.28-0.531,0.551-0.811,0.811l-224,208C279.924,478.443,276.038,479.975,272,479.98z M160,319.98h112
	c8.837,0,16,7.163,16,16v91.328L472.48,255.98L288,84.652v91.328c0,8.837-7.163,16-16,16H160V319.98z"/>
<path d="M16,351.98c-8.837,0-16-7.163-16-16v-160c0-8.837,7.163-16,16-16s16,7.163,16,16v160C32,344.816,24.837,351.98,16,351.98z"
	/>
<path d="M80,351.98c-8.837,0-16-7.163-16-16v-160c0-8.837,7.163-16,16-16s16,7.163,16,16v160C96,344.816,88.837,351.98,80,351.98z"
	/>
<g>
</g>
<g>
</g>
<g>
</g>
<g>
</g>
<g>
</g>
<g>
</g>
<g>
</g>
<g>
</g>
<g>
</g>
<g>
</g>
<g>
</g>
<g>
</g>
<g>
</g>
<g>
</g>
<g>
</g>
</svg>
