<svg enable-background="new 0 0 64 64" height="512" viewBox="0 0 64 64" width="512" xmlns="http://www.w3.org/2000/svg"><g id="Layer_12_1_"><path d="m32.08 7.11v21.4c0 2.27-1.84 4.11-4.11 4.11h-21.4c-2.26 0-4.11-1.84-4.11-4.11v-21.4c0-2.26 1.85-4.1 4.11-4.1h21.4c2.27 0 4.11 1.84 4.11 4.1z" fill="#81c996"/><path d="m17.27 14.01c-2.1 0-3.81 1.7-3.81 3.8s1.71 3.81 3.81 3.81 3.81-1.71 3.81-3.81-1.71-3.8-3.81-3.8z" fill="#00a651"/><path d="m60.98 40.47-10.79 18.49c-.73 1.25-2.09 2.03-3.55 2.03-.72 0-1.43-.19-2.06-.56l-18.49-10.78c-1.95-1.14-2.62-3.66-1.48-5.62l10.79-18.48c.73-1.26 2.09-2.04 3.55-2.04.72 0 1.43.19 2.06.56l18.49 10.78c.95.55 1.62 1.44 1.9 2.5s.13 2.17-.42 3.12z" fill="#81c996"/><g fill="#00a651"><path d="m43.91 32.88c1.06-1.82.44-4.15-1.37-5.21-.58-.34-1.24-.52-1.91-.52-1.35 0-2.61.73-3.29 1.89-.52.88-.66 1.9-.4 2.89.26.98.89 1.8 1.77 2.32.58.33 1.24.51 1.91.51 1.35 0 2.61-.72 3.29-1.88z"/><path d="m38.18 35.15c-.58-.34-1.25-.52-1.92-.52-1.35 0-2.61.73-3.29 1.89-1.06 1.81-.44 4.15 1.37 5.21.58.34 1.25.52 1.92.52 1.35 0 2.61-.73 3.29-1.89.51-.88.65-1.91.39-2.89s-.88-1.8-1.76-2.32z"/><path d="m33.81 42.63c-.58-.33-1.24-.51-1.91-.51-1.35 0-2.61.72-3.29 1.88-1.06 1.82-.44 4.15 1.37 5.21.58.34 1.24.52 1.91.52 1.35 0 2.61-.73 3.29-1.89.52-.88.66-1.9.4-2.89-.26-.98-.89-1.8-1.77-2.32z"/><path d="m55.61 35.29c-.58-.34-1.24-.52-1.91-.52-1.35 0-2.61.73-3.29 1.89-.52.88-.66 1.91-.4 2.89s.89 1.81 1.77 2.32c.58.34 1.24.52 1.91.52 1.35 0 2.61-.73 3.29-1.89 1.06-1.81.44-4.15-1.37-5.21z"/><path d="m51.25 42.78c-.58-.34-1.25-.52-1.92-.52-1.35 0-2.61.72-3.29 1.89-.51.87-.65 1.9-.39 2.88.26.99.89 1.81 1.76 2.32.59.34 1.25.52 1.92.52 1.35 0 2.61-.72 3.29-1.89 1.06-1.81.44-4.15-1.37-5.2z"/><path d="m46.88 50.26c-.58-.34-1.24-.52-1.91-.52-1.35 0-2.61.72-3.29 1.89-.51.88-.65 1.9-.39 2.88.25.99.88 1.81 1.76 2.32.58.34 1.24.52 1.91.52 1.35 0 2.62-.72 3.29-1.89 1.06-1.81.45-4.14-1.37-5.2z"/></g></g></svg>