<svg id="Artwork" height="512" viewBox="0 0 512 512" width="512" xmlns="http://www.w3.org/2000/svg"><path d="m409.06 159a42.22 42.22 0 0 0 -48.54 24.8l-21.1 50.2v-174.63a35.34 35.34 0 0 0 -51.55-31.37 35.54 35.54 0 0 0 -69.44 0 35.34 35.34 0 0 0 -51.55 31.42v24.76a35.34 35.34 0 0 0 -50.76 31.82v204.27a9.85 9.85 0 0 0 .36 2.61c.41 12.44 4.07 65.54 36.23 103.87a40.82 40.82 0 0 1 9.56 26.16v49.09a10 10 0 0 0 10 10h157.18a10 10 0 0 0 10-10v-49.36a24.07 24.07 0 0 1 5.75-15.55c1.93-2.28 4.31-4.84 7.06-7.82 13.87-15 34.83-37.66 40.18-68.71l36.4-170.45a26.4 26.4 0 0 0 -19.78-31.11zm.24 26.91-36.44 170.69c0 .13-.06.27-.08.41-4.3 25.31-22.16 44.62-35.2 58.72-2.78 3-5.41 5.85-7.62 8.45a44.08 44.08 0 0 0 -10.49 28.46v39.41h-137.25v-39.14a60.75 60.75 0 0 0 -14.23-39c-31.13-37.11-31.61-93.11-31.62-93.66a10 10 0 0 0 -.3-2.41v-201.84a15.41 15.41 0 1 1 30.81 0v133.37a10 10 0 1 0 20 0v-190a15.41 15.41 0 1 1 30.81 0v190.17a10 10 0 0 0 20 0v-214.18a15.56 15.56 0 0 1 31.12 0v214.18a10 10 0 0 0 20 0v-190.17a15.41 15.41 0 1 1 30.81 0v224a10 10 0 0 0 19.17 3.86l40.27-95.7a22.28 22.28 0 0 1 25.64-13.1 6.33 6.33 0 0 1 4.6 7.51z"/></svg>