<svg enable-background="new 0 0 64 64" height="512" viewBox="0 0 64 64" width="512" xmlns="http://www.w3.org/2000/svg"><g id="Layer_19"><path d="m32.08 7.11v21.4c0 2.27-1.84 4.11-4.11 4.11h-21.4c-2.26 0-4.11-1.84-4.11-4.11v-21.4c0-2.26 1.85-4.1 4.11-4.1h21.4c2.27 0 4.11 1.84 4.11 4.1z" fill="#81c996"/><path d="m60.68 40.15-10.71 18.53c-.739 1.26-2.1 2.05-3.56 2.05-.72 0-1.43-.19-2.061-.55l-18.519-10.72c-.95-.55-1.63-1.43-1.91-2.49-.29-1.06-.14-2.17.41-3.12l10.71-18.53c.729-1.26 2.09-2.05 3.56-2.05.721 0 1.431.19 2.051.56l18.529 10.71c1.96 1.13 2.63 3.65 1.5 5.61z" fill="#81c996"/><g fill="#00a651"><path d="m29.14 25.24c0-2.1-1.71-3.81-3.81-3.81s-3.8 1.71-3.8 3.81c0 2.09 1.7 3.8 3.8 3.8s3.81-1.71 3.81-3.8z"/><path d="m9.8 5.79c-2.1 0-3.8 1.71-3.8 3.8 0 2.1 1.7 3.81 3.8 3.81s3.81-1.71 3.81-3.81c0-2.09-1.71-3.8-3.81-3.8z"/><path d="m17.27 14.01c-2.1 0-3.81 1.7-3.81 3.8s1.71 3.81 3.81 3.81 3.81-1.71 3.81-3.81-1.71-3.8-3.81-3.8z"/><path d="m43.96 32.88c1.06-1.81.46-4.14-1.35-5.21-.58-.35-1.25-.53-1.931-.53-1.34 0-2.6.72-3.279 1.87-.521.88-.66 1.9-.41 2.89.26.98.88 1.81 1.76 2.33.58.34 1.25.52 1.93.52 1.34 0 2.6-.71 3.28-1.87z"/><path d="m38.21 35.13c-.58-.35-1.25-.53-1.93-.53-1.34 0-2.601.72-3.28 1.87-.52.88-.66 1.9-.41 2.89.26.98.88 1.81 1.75 2.33.59.34 1.26.52 1.94.52 1.34 0 2.6-.71 3.279-1.87.511-.87.66-1.9.4-2.88-.249-.99-.869-1.81-1.749-2.33z"/><path d="m33.81 42.59c-.579-.34-1.25-.53-1.93-.53-1.34 0-2.6.72-3.28 1.88-1.07 1.8-.46 4.14 1.35 5.21.58.34 1.25.53 1.93.53 1.34 0 2.601-.72 3.28-1.88.51-.87.66-1.9.399-2.88-.249-.99-.869-1.81-1.749-2.33z"/><path d="m55.64 35.36c-.58-.35-1.25-.53-1.93-.53-1.34 0-2.59.72-3.28 1.87-.51.88-.66 1.9-.399 2.88.25.99.87 1.82 1.75 2.33.58.35 1.25.53 1.93.53 1.34 0 2.6-.72 3.28-1.87.52-.88.66-1.9.41-2.89-.261-.98-.881-1.81-1.761-2.32z"/><path d="m51.25 42.82c-.59-.35-1.26-.53-1.94-.53-1.34 0-2.6.72-3.279 1.87-.511.88-.66 1.9-.4 2.89.25.98.87 1.81 1.75 2.32.58.35 1.25.53 1.93.53 1.341 0 2.601-.72 3.28-1.87 1.069-1.81.459-4.15-1.341-5.21z"/><path d="m46.85 50.28c-.59-.35-1.26-.53-1.939-.53-1.34 0-2.601.72-3.28 1.87-.51.88-.66 1.9-.399 2.89.25.98.869 1.81 1.75 2.32.579.35 1.25.53 1.93.53 1.34 0 2.6-.72 3.28-1.87.52-.88.659-1.9.409-2.89-.261-.98-.881-1.81-1.751-2.32z"/></g></g></svg>