<svg id="Layer_1" height="512" viewBox="0 0 512 512" width="512" xmlns="http://www.w3.org/2000/svg" xmlns:xlink="http://www.w3.org/1999/xlink" data-name="Layer 1"><linearGradient id="Blue_2" gradientUnits="userSpaceOnUse" x1="6" x2="506" y1="256" y2="256"><stop offset="0" stop-color="#2bc4f3"/><stop offset=".5" stop-color="#00aeee"/><stop offset="1" stop-color="#0095da"/></linearGradient><linearGradient id="linear-gradient" gradientUnits="userSpaceOnUse" x1="120.269" x2="419.361" y1="147.082" y2="446.174"><stop offset="0"/><stop offset="1" stop-opacity="0"/></linearGradient><circle cx="256" cy="256" fill="url(#Blue_2)" r="250"/><path d="m500.159 309.885-234.159-234.159h-74.375c27.375 35.074 61.125 102.455 61.125 180.647 0 77.821-32.624 145.194-60.376 179.9l69.65 69.65c116.89-2.764 213.906-85.76 238.135-196.038z" fill="url(#linear-gradient)" opacity=".49"/><path d="m192.374 436.274c27.752-34.707 60.376-102.08 60.376-179.9 0-78.192-33.75-145.57-61.125-180.647h74.375c33.75 49.273 54.375 111.611 54.375 180.646 0 68.659-20.625 131.005-54.375 179.9z" fill="#fff"/></svg>