<?xml version="1.0" encoding="iso-8859-1"?>
<!-- Generator: Adobe Illustrator 19.0.0, SVG Export Plug-In . SVG Version: 6.00 Build 0)  -->
<svg version="1.1" id="Capa_1" xmlns="http://www.w3.org/2000/svg" xmlns:xlink="http://www.w3.org/1999/xlink" x="0px" y="0px"
	 viewBox="0 0 512.011 512.011" style="enable-background:new 0 0 512.011 512.011;" xml:space="preserve">
<polygon style="fill:#4CAF50;" points="332.48,208.005 211.84,80.005 336,80.005 480,236.485 496,256.005 480,275.525 336,432.005 
	211.84,432.005 332.48,304.005 16,304.005 16,208.005 "/>
<path d="M336,448.005H211.84c-8.837,0.004-16.003-7.157-16.006-15.994c-0.002-4.083,1.558-8.012,4.358-10.982l95.232-101.024H16
	c-8.837,0-16-7.163-16-16v-96c0-8.837,7.163-16,16-16h279.424L200.192,90.981c-6.062-6.429-5.764-16.556,0.666-22.618
	c2.971-2.801,6.9-4.36,10.982-4.358H336c4.478,0.004,8.749,1.884,11.776,5.184l160.608,176.672c4.836,5.898,4.836,14.39,0,20.288
	l-16,19.52L347.776,442.821C344.749,446.121,340.478,448.001,336,448.005z M248.896,416.005h80l146.336-160l-7.712-9.376
	L328.992,96.005h-80l95.232,101.024c6.062,6.429,5.764,16.556-0.665,22.618c-2.995,2.824-6.963,4.385-11.079,4.358H32v64h300.48
	c8.837-0.004,16.003,7.157,16.006,15.994c0.002,4.083-1.558,8.012-4.358,10.982L248.896,416.005z"/>
<g>
</g>
<g>
</g>
<g>
</g>
<g>
</g>
<g>
</g>
<g>
</g>
<g>
</g>
<g>
</g>
<g>
</g>
<g>
</g>
<g>
</g>
<g>
</g>
<g>
</g>
<g>
</g>
<g>
</g>
</svg>
