<svg id="Layer_1" height="512" viewBox="0 0 512 512" width="512" xmlns="http://www.w3.org/2000/svg" xmlns:xlink="http://www.w3.org/1999/xlink" data-name="Layer 1"><linearGradient id="Blue_2" gradientUnits="userSpaceOnUse" x1="6" x2="506" y1="256" y2="256"><stop offset="0" stop-color="#2bc4f3"/><stop offset=".5" stop-color="#00aeee"/><stop offset="1" stop-color="#0095da"/></linearGradient><linearGradient id="linear-gradient" gradientUnits="userSpaceOnUse" x1="163.669" x2="432.546" y1="164.118" y2="432.994"><stop offset="0"/><stop offset="1" stop-opacity="0"/></linearGradient><circle cx="256" cy="256" fill="url(#Blue_2)" r="250"/><path d="m498.285 317.842-215.9-215.9h-56.044v24.7c-42.864 7.665-68.106 34.088-68.106 74.814 0 22.033 6.886 37.248 17.436 48.146l50.423 50.423h-71.233c0 24.37 8.119 44.31 22.678 58.855l139.582 139.581a250.412 250.412 0 0 0 181.164-180.619z" fill="url(#linear-gradient)" opacity=".49"/><path d="m284.908 383.77v26.288h-56.044v-26.134c-45.694-8.333-74-38.393-74-83.9h71.716c0 16.977 13.875 25.456 29.4 25.456 14.559 0 28.433-7.41 28.433-20.352 0-15.716-19.466-20.272-43.333-26.171-36.442-9.056-82.842-20.307-82.842-77.5 0-40.726 25.242-67.149 68.106-74.814v-24.7h56.044v24.957c42.6 8.31 66.615 36.383 66.615 78.17l-69.638.157c0-14.726-11.783-21.919-26.182-21.919-12.51 0-24.454 5.149-24.454 16 0 14.378 18.877 19.091 42.784 25.152 37.136 9.588 85.629 21.75 85.629 79.283-.003 44.919-29.01 72.017-72.234 80.027z" fill="#fff"/></svg>