<svg enable-background="new 0 0 64 64" height="512" viewBox="0 0 64 64" width="512" xmlns="http://www.w3.org/2000/svg"><g id="Layer_13_1_"><path d="m61.17 39.99-10.67 18.55c-.73 1.27-2.09 2.06-3.56 2.06-.72 0-1.42-.19-2.04-.55l-18.56-10.67c-.95-.54-1.63-1.43-1.91-2.49-.29-1.06-.14-2.16.4-3.12l10.67-18.55c.73-1.27 2.1-2.06 3.56-2.06.72 0 1.43.19 2.05.55l18.55 10.67c.95.55 1.63 1.43 1.92 2.49.28 1.06.14 2.17-.41 3.12z" fill="#81c996"/><g fill="#00a651"><path d="m47.73 49.23c-.57-.33-1.23-.5-1.89-.5-1.36 0-2.63.73-3.3 1.9-.51.88-.64 1.91-.38 2.89.27.98.9 1.8 1.78 2.31.58.33 1.23.51 1.89.51 1.36 0 2.63-.73 3.31-1.91.5-.88.63-1.91.37-2.89s-.9-1.8-1.78-2.31z"/><path d="m43.47 33.13c1.05-1.82.42-4.15-1.4-5.2-.58-.33-1.24-.51-1.9-.51-1.36 0-2.62.73-3.3 1.91-1.05 1.82-.42 4.15 1.4 5.2.58.33 1.23.51 1.9.51 1.36 0 2.62-.74 3.3-1.91z"/><path d="m46.3 43.78c.51-.88.64-1.91.38-2.89-.27-.98-.9-1.8-1.78-2.31-.58-.33-1.23-.51-1.9-.51-1.35 0-2.62.74-3.3 1.91-1.04 1.82-.41 4.15 1.4 5.2.58.33 1.24.51 1.9.51 1.36 0 2.62-.73 3.3-1.91z"/></g><path d="m31.9 7.51v21.4c0 2.26-1.85 4.11-4.11 4.11h-21.4c-2.27 0-4.11-1.85-4.11-4.11v-21.4c0-2.27 1.84-4.11 4.11-4.11h21.4c2.26 0 4.11 1.84 4.11 4.11z" fill="#81c996"/><path d="m17.09 8.58c-2.1 0-3.81 1.71-3.81 3.8 0 2.1 1.71 3.81 3.81 3.81s3.8-1.71 3.8-3.81c0-2.09-1.7-3.8-3.8-3.8z" fill="#00a651"/><path d="m17.09 20.23c-2.1 0-3.81 1.71-3.81 3.8 0 2.1 1.71 3.81 3.81 3.81s3.8-1.71 3.8-3.81c0-2.09-1.7-3.8-3.8-3.8z" fill="#00a651"/></g></svg>