<svg id="Layer_1" height="512" viewBox="0 0 512 512" width="512" xmlns="http://www.w3.org/2000/svg" xmlns:xlink="http://www.w3.org/1999/xlink" data-name="Layer 1"><linearGradient id="Blue_2" gradientUnits="userSpaceOnUse" x1="6" x2="506" y1="256" y2="256"><stop offset="0" stop-color="#2bc4f3"/><stop offset=".5" stop-color="#00aeee"/><stop offset="1" stop-color="#0095da"/></linearGradient><linearGradient id="linear-gradient" gradientUnits="userSpaceOnUse" x1="121.122" x2="418.484" y1="149.683" y2="447.045"><stop offset="0"/><stop offset="1" stop-opacity="0"/></linearGradient><circle cx="256" cy="256" fill="url(#Blue_2)" r="250"/><path d="m499 314.924-225.235-225.232a49.047 49.047 0 0 0 -34.732-14.341h-43.579v55.305h28.589v76.91c0 22.4 11.679 40.962 29.915 48.162-18.653 7.219-30.664 26.01-30.664 48.214v77.776h-27.84v54.931l69.186 69.187c113.936-3.873 208.516-83.972 234.36-190.912z" fill="url(#linear-gradient)" opacity=".49"/><path d="m316.546 232.058v48.751h-7.761a20.25 20.25 0 0 0 -20.625 20.25v86.464a49.055 49.055 0 0 1 -49.127 49.126h-43.579v-55.305h28.59v-76.91c0-22.4 11.678-40.962 29.914-48.162-18.653-7.219-30.664-26.01-30.664-48.214v-77.776h-27.84v-54.931h43.579c27 0 49.127 21.75 49.127 48.751v87.33a20.332 20.332 0 0 0 20.625 20.626z" fill="#fff"/></svg>