<svg id="Layer_1" height="512" viewBox="0 0 512 512" width="512" xmlns="http://www.w3.org/2000/svg" xmlns:xlink="http://www.w3.org/1999/xlink" data-name="Layer 1"><linearGradient id="Blue_2" gradientUnits="userSpaceOnUse" x1="6" x2="506" y1="256" y2="256"><stop offset="0" stop-color="#2bc4f3"/><stop offset=".5" stop-color="#00aeee"/><stop offset="1" stop-color="#0095da"/></linearGradient><linearGradient id="linear-gradient" gradientUnits="userSpaceOnUse" x1="174.458" x2="446.361" y1="147.269" y2="419.172"><stop offset="0"/><stop offset="1" stop-opacity="0"/></linearGradient><circle cx="256" cy="256" fill="url(#Blue_2)" r="250"/><path d="m505.933 261.284-185.558-185.558h-74.375c-33.749 49.274-54.375 111.612-54.375 180.647 0 68.659 20.626 131.005 54.376 179.9l63.885 63.885c110.514-24.279 193.614-121.658 196.047-238.874z" fill="url(#linear-gradient)" opacity=".49"/><path d="m191.625 256.373c0-69.035 20.626-131.373 54.375-180.647h74.374c-27.374 35.074-61.124 102.455-61.124 180.647 0 77.821 32.627 145.194 60.376 179.9h-73.626c-33.749-48.895-54.375-111.241-54.375-179.9z" fill="#fff"/></svg>