<?xml version="1.0" encoding="iso-8859-1"?>
<!-- Generator: Adobe Illustrator 19.0.0, SVG Export Plug-In . SVG Version: 6.00 Build 0)  -->
<svg version="1.1" id="Capa_1" xmlns="http://www.w3.org/2000/svg" xmlns:xlink="http://www.w3.org/1999/xlink" x="0px" y="0px"
	 viewBox="0 0 512.015 512.015" style="enable-background:new 0 0 512.015 512.015;" xml:space="preserve">
<polygon style="fill:#FFC107;" points="304.032,175.998 304.032,47.998 496.032,255.998 304.032,463.998 304.032,335.998 
	16.032,367.998 80.032,255.998 16.032,143.998 "/>
<path d="M304.032,479.998c-8.837,0-16-7.163-16-16V353.886L17.824,383.998c-8.779,1.007-16.712-5.293-17.719-14.072
	c-0.389-3.387,0.315-6.809,2.007-9.768L61.6,255.998L2.112,151.934c-2.972-5.228-2.762-11.681,0.544-16.704
	c3.36-4.995,9.172-7.767,15.168-7.232l270.208,30.112V47.998c0.01-8.837,7.182-15.992,16.018-15.982
	c4.453,0.005,8.702,1.865,11.726,5.134l192,208c5.652,6.128,5.652,15.568,0,21.696l-192,208
	C312.75,478.126,308.493,479.993,304.032,479.998z M304.032,319.998c8.837,0,16,7.163,16,16v87.072L474.24,255.998L320.032,88.926
	v87.072c0,4.558-1.944,8.9-5.344,11.936c-3.358,3.105-7.905,4.59-12.448,4.064l-256.704-28.64l48.416,84.704
	c2.8,4.966,2.8,11.034,0,16l-48.416,84.736l256.704-28.8C302.836,319.966,303.435,319.966,304.032,319.998z"/>
<g>
</g>
<g>
</g>
<g>
</g>
<g>
</g>
<g>
</g>
<g>
</g>
<g>
</g>
<g>
</g>
<g>
</g>
<g>
</g>
<g>
</g>
<g>
</g>
<g>
</g>
<g>
</g>
<g>
</g>
</svg>
