<svg enable-background="new 0 0 64 64" height="512" viewBox="0 0 64 64" width="512" xmlns="http://www.w3.org/2000/svg"><g id="Layer_15"><path d="m60.74 40.86-10.75 18.5c-.74 1.26-2.101 2.05-3.561 2.05-.72 0-1.43-.19-2.06-.56l-18.499-10.75c-1.96-1.14-2.63-3.66-1.49-5.62l10.75-18.5c.73-1.26 2.09-2.04 3.55-2.04.73 0 1.44.19 2.07.55l18.5 10.76c.95.55 1.63 1.43 1.91 2.5.28 1.06.13 2.16-.42 3.11z" fill="#81c996"/><g fill="#00a651"><path d="m43.18 34.11c.521-.88.65-1.9.391-2.88-.261-.99-.891-1.81-1.761-2.32-.59-.34-1.25-.52-1.92-.52-1.35 0-2.609.73-3.29 1.9-.51.88-.649 1.9-.39 2.88.26.99.89 1.81 1.771 2.32.579.34 1.239.52 1.909.52 1.35 0 2.62-.73 3.29-1.9z"/><path d="m34.05 42.25c-.58-.33-1.24-.51-1.91-.51-1.35 0-2.609.72-3.29 1.89-.51.88-.649 1.91-.39 2.89s.89 1.8 1.771 2.31c.579.34 1.239.52 1.909.52 1.351 0 2.61-.73 3.29-1.89 1.06-1.82.44-4.15-1.38-5.21z"/><path d="m54.89 36.51c-.58-.34-1.24-.51-1.91-.51-1.36 0-2.62.72-3.301 1.89-1.05 1.81-.43 4.15 1.38 5.2.58.34 1.24.52 1.91.52 1.36 0 2.62-.73 3.3-1.89.511-.88.65-1.91.391-2.89s-.89-1.81-1.77-2.32z"/><path d="m47.14 49.85c-.59-.33-1.25-.51-1.92-.51-1.35 0-2.609.72-3.29 1.89-.51.88-.649 1.91-.39 2.89s.89 1.8 1.77 2.32c.58.33 1.24.51 1.91.51 1.351 0 2.62-.72 3.3-1.89 1.05-1.82.43-4.15-1.38-5.21z"/><path d="m45.85 44.58c.511-.87.65-1.9.391-2.88s-.891-1.81-1.771-2.32c-.58-.34-1.239-.51-1.91-.51-1.35 0-2.609.72-3.29 1.89-.51.88-.649 1.9-.39 2.89.26.98.89 1.8 1.771 2.31.58.34 1.239.52 1.909.52 1.35 0 2.61-.73 3.29-1.9z"/></g><path d="m32.32 6.7v21.4c0 2.26-1.84 4.11-4.11 4.11h-21.4c-2.26 0-4.1-1.85-4.1-4.11v-21.4c0-2.27 1.84-4.11 4.1-4.11h21.4c2.27 0 4.11 1.84 4.11 4.11z" fill="#81c996"/><path d="m17.51 7.59c-2.09 0-3.8 1.71-3.8 3.81s1.71 3.8 3.8 3.8c2.101 0 3.811-1.7 3.811-3.8s-1.711-3.81-3.811-3.81z" fill="#00a651"/><path d="m17.51 19.59c-2.09 0-3.8 1.71-3.8 3.81s1.71 3.8 3.8 3.8c2.101 0 3.811-1.7 3.811-3.8s-1.711-3.81-3.811-3.81z" fill="#00a651"/></g></svg>