<svg id="Layer_1" height="512" viewBox="0 0 512 512" width="512" xmlns="http://www.w3.org/2000/svg" xmlns:xlink="http://www.w3.org/1999/xlink" data-name="Layer 1"><linearGradient id="Blue_2" gradientUnits="userSpaceOnUse" x1="6" x2="506" y1="256" y2="256"><stop offset="0" stop-color="#2bc4f3"/><stop offset=".5" stop-color="#00aeee"/><stop offset="1" stop-color="#0095da"/></linearGradient><linearGradient id="linear-gradient" gradientUnits="userSpaceOnUse" x1="162.049" x2="419.922" y1="187.74" y2="445.613"><stop offset="0"/><stop offset="1" stop-opacity="0"/></linearGradient><circle cx="256" cy="256" fill="url(#Blue_2)" r="250"/><path d="m497.687 320.113-169.642-169.642c-14.417-14.568-36.084-22.723-63.134-22.723-52.627 0-87.117 29.844-87.117 75.8v35.6h-17.988v47.72l17.988 17.988v29.116l-22.5 10.155v40.126l120.931 120.93c106.894-8.559 194.814-84.353 221.462-185.07z" fill="url(#linear-gradient)" opacity=".49"/><path d="m356.706 305.7v78.556h-201.412v-40.13l22.5-10.155v-47.1h-17.988v-47.72h17.988v-35.6c0-45.952 34.49-75.8 87.117-75.8 51.182 0 83.091 29.194 83.091 75.8v5.581h-60.193v-4.433c0-15.338-9.06-24.728-22.9-24.728-14 0-23.276 9.39-23.276 24.728v34.455h45.027v47.72h-45.025v44.224h57.8v-25.398z" fill="#fff"/></svg>