<svg id="Layer_1" height="512" viewBox="0 0 512 512" width="512" xmlns="http://www.w3.org/2000/svg" xmlns:xlink="http://www.w3.org/1999/xlink" data-name="Layer 1"><linearGradient id="Blue_2" gradientUnits="userSpaceOnUse" x1="6" x2="506" y1="256" y2="256"><stop offset="0" stop-color="#2bc4f3"/><stop offset=".5" stop-color="#00aeee"/><stop offset="1" stop-color="#0095da"/></linearGradient><linearGradient id="linear-gradient" gradientUnits="userSpaceOnUse" x1="179.382" x2="433.366" y1="178.193" y2="432.176"><stop offset="0"/><stop offset="1" stop-opacity="0"/></linearGradient><circle cx="256" cy="256" fill="url(#Blue_2)" r="250"/><path d="m492.894 336.09-207.682-207.682h-56.045v31.366c-46.46 10.943-77.537 48.551-77.537 98.045 0 28.5 10.487 53.2 28.308 71.076l49.229 49.23v5.467l108.685 108.684a250.654 250.654 0 0 0 155.042-156.186z" fill="url(#linear-gradient)" opacity=".49"/><path d="m285.212 356.017v27.575h-56.045v-27.687c-46.283-11.014-77.537-48.889-77.537-98.086 0-49.494 31.077-87.1 77.537-98.045v-31.366h56.045v31.192c39.9 9.379 68.313 39.534 74.407 81.252h-65c-5.648-15.123-20.284-24.874-36.908-24.874-22.9 0-39.161 17.224-39.161 42.057 0 24.455 16.478 42.057 39.161 42.057 17.318 0 31.524-10.662 37.069-26.91h65.59c-6.176 42.451-34.984 73.239-75.158 82.835z" fill="#fff"/></svg>