<svg id="Layer_1" height="512" viewBox="0 0 512 512" width="512" xmlns="http://www.w3.org/2000/svg" xmlns:xlink="http://www.w3.org/1999/xlink" data-name="Layer 1"><linearGradient id="Blue_2" gradientUnits="userSpaceOnUse" x1="6" x2="506" y1="256" y2="256"><stop offset="0" stop-color="#2bc4f3"/><stop offset=".5" stop-color="#00aeee"/><stop offset="1" stop-color="#0095da"/></linearGradient><linearGradient id="linear-gradient" gradientUnits="userSpaceOnUse" x1="180.195" x2="433.103" y1="179.523" y2="432.431"><stop offset="0"/><stop offset="1" stop-opacity="0"/></linearGradient><circle cx="256" cy="256" fill="url(#Blue_2)" r="250"/><path d="m497.117 322.222-193.8-193.8h-72.023l-45.84 77.278c-20.889 34.98-28.523 60.286-28.523 85.854 0 26.917 9.892 49.721 27.012 65.9l139.374 139.366a250.468 250.468 0 0 0 173.8-174.598z" fill="url(#linear-gradient)" opacity=".49"/><path d="m355.069 291.232c0 54.683-40.329 92.345-98.853 92.345-58.853 0-99.285-37.606-99.285-92.026 0-25.568 7.634-50.874 28.523-85.854l45.84-77.274h72.024c-16.418 27.518-33.016 54.9-49.468 82.4a108.965 108.965 0 0 1 16.5-1.211c49.91-.004 84.719 33.417 84.719 81.62zm-64.229 0c0-21.068-14.421-35.431-34.841-35.431-20.2 0-34.842 14.363-34.842 35.431 0 20.853 14.637 35.059 34.842 35.059 20.42 0 34.841-14.206 34.841-35.059z" fill="#fff"/></svg>