<svg id="Layer_1" height="512" viewBox="0 0 512 512" width="512" xmlns="http://www.w3.org/2000/svg" xmlns:xlink="http://www.w3.org/1999/xlink" data-name="Layer 1"><linearGradient id="Blue_2" gradientUnits="userSpaceOnUse" x1="6" x2="506" y1="256" y2="256"><stop offset="0" stop-color="#2bc4f3"/><stop offset=".5" stop-color="#00aeee"/><stop offset="1" stop-color="#0095da"/></linearGradient><linearGradient id="linear-gradient" gradientUnits="userSpaceOnUse" x1="161.002" x2="432.497" y1="161.554" y2="433.049"><stop offset="0"/><stop offset="1" stop-opacity="0"/></linearGradient><circle cx="256" cy="256" fill="url(#Blue_2)" r="250"/><path d="m499.529 312.743-182.818-182.819c-13.844-13.822-35.148-21.612-61.8-21.612-47.592 0-77.7 22.864-77.7 63.522 0 14.734 4.972 26.284 14.527 35.7-14.456 11.243-23.254 26.393-23.254 48.088 0 18.024 5.87 30.633 14.865 39.752l41.237 41.237h-48.224c0 18.317 6.146 33.607 17.3 44.94l118.18 118.181a250.356 250.356 0 0 0 187.687-186.989z" fill="url(#linear-gradient)" opacity=".49"/><path d="m320.9 304.593c9.128 9.63 13.883 21.357 13.883 36 0 40.445-30.319 63.091-78.13 63.091-49.214 0-80.295-25.887-80.295-67.077h57.5c0 12.3 11.194 18.214 23.014 18.214 10.2 0 19.025-4.669 19.025-13.316 0-12.072-16.2-16.2-35.98-21.128-31.2-7.5-71.434-17.569-71.434-64.759 0-21.7 8.8-36.845 23.254-48.088-9.555-9.416-14.527-20.966-14.527-35.7 0-40.658 30.1-63.522 77.7-63.522 48.784 0 79.647 26.1 79.647 67.512h-57.5c0-12.308-10.762-18.218-22.365-18.218-9.99 0-18.592 4.673-18.592 13.321 0 12.067 16.41 16.409 36.195 21.341 31.193 7.714 71.217 17.783 71.217 64.546.001 19.152-7.728 35.269-22.612 47.783zm-54.8-27.881c1.538.457 3.139.952 4.781 1.477 8.235-3.54 13.969-9.652 13.688-18.84-.32-14.344-16.92-20.239-40.287-25.775q-1.284-.416-2.565-.839c-8.936 3.686-14.543 10.582-14.287 19.714.319 13.001 16.377 18.945 38.67 24.263z" fill="#fff"/></svg>