<svg enable-background="new 0 0 64 64" height="512" viewBox="0 0 64 64" width="512" xmlns="http://www.w3.org/2000/svg"><g id="Layer_21"><path d="m60.83 40.28-10.71 18.53c-.73 1.27-2.101 2.05-3.561 2.05-.72 0-1.43-.19-2.05-.55l-18.529-10.72c-.95-.55-1.631-1.43-1.91-2.49-.29-1.06-.141-2.17.41-3.12l10.71-18.52c.729-1.27 2.1-2.05 3.56-2.05.72 0 1.43.19 2.06.55l18.52 10.71c1.96 1.13 2.64 3.65 1.5 5.61z" fill="#81c996"/><g fill="#00a651"><path d="m43.75 32.76c1.06-1.82.44-4.15-1.37-5.21-.58-.34-1.24-.52-1.92-.52-1.34 0-2.61.73-3.29 1.89-.51.88-.65 1.91-.39 2.89s.89 1.81 1.77 2.32c.58.34 1.24.52 1.91.52 1.35 0 2.61-.73 3.29-1.89z"/><path d="m38.02 35.03c-.59-.34-1.25-.51-1.92-.51-1.35 0-2.609.72-3.29 1.88-1.06 1.82-.439 4.15 1.37 5.21.58.34 1.25.52 1.92.52 1.351 0 2.61-.73 3.29-1.89.511-.88.65-1.9.391-2.89-.261-.98-.891-1.8-1.761-2.32z"/><path d="m33.65 42.52c-.58-.34-1.24-.52-1.91-.52-1.351 0-2.61.72-3.29 1.89-1.061 1.81-.45 4.14 1.37 5.2.58.34 1.239.52 1.91.52 1.35 0 2.609-.72 3.289-1.89.521-.88.65-1.9.4-2.89-.259-.98-.889-1.8-1.769-2.31z"/><path d="m55.45 35.18c-.58-.34-1.24-.52-1.91-.52-1.35 0-2.62.72-3.3 1.89-.51.87-.65 1.9-.391 2.88.261.99.891 1.81 1.771 2.32.58.34 1.24.52 1.91.52 1.35 0 2.609-.72 3.29-1.89 1.06-1.81.44-4.15-1.37-5.2z"/><path d="m51.09 42.66c-.59-.34-1.25-.52-1.92-.52-1.35 0-2.61.72-3.29 1.89-.51.88-.649 1.9-.39 2.88.26.99.88 1.81 1.76 2.32.58.34 1.25.52 1.92.52 1.35 0 2.61-.72 3.29-1.89 1.05-1.81.44-4.14-1.37-5.2z"/><path d="m46.72 50.14c-.58-.34-1.239-.52-1.91-.52-1.35 0-2.609.72-3.29 1.89-1.06 1.81-.439 4.15 1.37 5.2.58.34 1.24.52 1.91.52 1.351 0 2.61-.72 3.29-1.88.521-.88.66-1.91.4-2.89s-.89-1.81-1.77-2.32z"/></g><path d="m32.23 7.25v21.4c0 2.26-1.841 4.1-4.11 4.1h-21.4c-2.26 0-4.1-1.84-4.1-4.1v-21.4c0-2.27 1.84-4.11 4.1-4.11h21.4c2.27 0 4.11 1.84 4.11 4.11z" fill="#81c996"/><path d="m9.86 6.43c-2.101 0-3.811 1.7-3.811 3.8s1.71 3.81 3.811 3.81c2.1 0 3.8-1.71 3.8-3.81s-1.7-3.8-3.8-3.8z" fill="#00a651"/><path d="m9.86 21.86c-2.101 0-3.811 1.7-3.811 3.8s1.71 3.81 3.811 3.81c2.1 0 3.8-1.71 3.8-3.81s-1.7-3.8-3.8-3.8z" fill="#00a651"/><path d="m24.99 14.04c2.1 0 3.8-1.71 3.8-3.81s-1.7-3.8-3.8-3.8c-2.101 0-3.811 1.7-3.811 3.8s1.711 3.81 3.811 3.81z" fill="#00a651"/><path d="m24.99 21.86c-2.101 0-3.811 1.7-3.811 3.8s1.71 3.81 3.811 3.81c2.1 0 3.8-1.71 3.8-3.81s-1.7-3.8-3.8-3.8z" fill="#00a651"/></g></svg>