<svg id="Layer_1" height="512" viewBox="0 0 512 512" width="512" xmlns="http://www.w3.org/2000/svg" xmlns:xlink="http://www.w3.org/1999/xlink" data-name="Layer 1"><linearGradient id="Blue_2" gradientUnits="userSpaceOnUse" x1="6" x2="506" y1="256" y2="256"><stop offset="0" stop-color="#2bc4f3"/><stop offset=".5" stop-color="#00aeee"/><stop offset="1" stop-color="#0095da"/></linearGradient><linearGradient id="linear-gradient" gradientUnits="userSpaceOnUse" x1="166.391" x2="432.035" y1="167.859" y2="433.503"><stop offset="0"/><stop offset="1" stop-opacity="0"/></linearGradient><circle cx="256" cy="256" fill="url(#Blue_2)" r="250"/><path d="m497.76 319.843-169.528-169.528c-16.085-15.8-41.228-25.07-72.126-25.07-54.935 0-91.888 29.524-91.888 72.482 0 19.965 8.831 37.039 26.243 51.165-22.361 14.191-33.095 33.35-33.095 58.411 0 20.962 7.77 38.92 21.52 52.433l138.629 138.628a250.419 250.419 0 0 0 180.245-178.521z" fill="url(#linear-gradient)" opacity=".49"/><path d="m321.428 248.93c22.294 14.332 33.206 33.476 33.206 58.369 0 47.194-39.956 79.456-98.743 79.456s-98.525-32.044-98.525-79.452c0-25.061 10.734-44.22 33.1-58.411-17.412-14.126-26.243-31.2-26.243-51.165 0-42.958 36.953-72.482 91.888-72.482s91.67 29.307 91.67 72.477c0 20.194-8.87 37.328-26.353 51.211zm-32.022 56.291c0-17.478-13.137-29.651-33.3-29.651s-33.506 12.173-33.506 29.651 13.354 29.649 33.514 29.649 33.292-12.17 33.292-29.649zm-61.876-105.47c0 14.423 11.693 24.934 28.579 24.934s28.366-10.511 28.366-24.934-11.48-24.93-28.366-24.93-28.579 10.511-28.579 24.93z" fill="#fff"/></svg>