<svg enable-background="new 0 0 64 64" height="512" viewBox="0 0 64 64" width="512" xmlns="http://www.w3.org/2000/svg"><g id="Layer_9"><path d="m32.11 6.52v21.4c0 2.26-1.84 4.11-4.11 4.11h-21.4c-2.26 0-4.1-1.85-4.1-4.11v-21.4c0-2.27 1.84-4.11 4.1-4.11h21.4c2.27 0 4.11 1.84 4.11 4.11z" fill="#81c996"/><path d="m17.3 13.41c-2.09 0-3.8 1.71-3.8 3.81s1.71 3.8 3.8 3.8c2.1 0 3.81-1.7 3.81-3.8s-1.71-3.81-3.81-3.81z" fill="#00a651"/><path d="m60.96 40.98-10.67 18.55c-.73 1.27-2.1 2.06-3.57 2.06-.71 0-1.42-.19-2.04-.55l-18.55-10.67c-.95-.54-1.63-1.43-1.92-2.49-.28-1.06-.14-2.16.41-3.12l10.67-18.55c.729-1.27 2.09-2.06 3.56-2.06.71 0 1.42.19 2.04.55l18.55 10.67c.949.55 1.64 1.43 1.92 2.49.29 1.06.14 2.17-.4 3.12z" fill="#81c996"/><g fill="#00a651"><path d="m47.52 50.22c-.579-.33-1.239-.5-1.899-.5-1.36 0-2.62.73-3.3 1.9-.511.88-.641 1.91-.37 2.89.26.98.89 1.8 1.77 2.31.58.33 1.24.51 1.9.51 1.36 0 2.62-.73 3.3-1.91.51-.88.64-1.91.37-2.89-.261-.98-.891-1.8-1.771-2.31z"/><path d="m43.25 34.12c1.05-1.82.42-4.15-1.4-5.2-.58-.33-1.229-.51-1.89-.51-1.36 0-2.63.73-3.31 1.91-1.04 1.82-.41 4.15 1.409 5.2.57.33 1.23.51 1.891.51 1.36 0 2.63-.74 3.3-1.91z"/><path d="m46.09 44.77c.5-.88.641-1.91.37-2.89-.26-.98-.9-1.8-1.78-2.31-.569-.33-1.229-.51-1.89-.51-1.36 0-2.62.74-3.3 1.91-1.05 1.82-.42 4.15 1.399 5.2.58.33 1.23.51 1.891.51 1.36 0 2.63-.74 3.31-1.91z"/></g></g></svg>