<svg id="Layer_1" height="512" viewBox="0 0 512 512" width="512" xmlns="http://www.w3.org/2000/svg" xmlns:xlink="http://www.w3.org/1999/xlink" data-name="Layer 1"><linearGradient id="Blue_2" gradientUnits="userSpaceOnUse" x1="6" x2="506" y1="256" y2="256"><stop offset="0" stop-color="#2bc4f3"/><stop offset=".5" stop-color="#00aeee"/><stop offset="1" stop-color="#0095da"/></linearGradient><linearGradient id="linear-gradient" gradientUnits="userSpaceOnUse" x1="146.626" x2="446.406" y1="119.343" y2="419.123"><stop offset="0"/><stop offset="1" stop-opacity="0"/></linearGradient><circle cx="256" cy="256" fill="url(#Blue_2)" r="250"/><path d="m505.95 259.919-128.608-128.608h-71.4l-35.862 64.028-64.028-64.028h-71.4l84.17 136.07h-55.189v36.65l16.658 16.657h-16.658v34.412l145.273 145.272c111.427-24.011 195.226-122.28 197.044-240.453z" fill="url(#linear-gradient)" opacity=".49"/><path d="m292.347 267.381h55.8v36.65h-59.137v16.657h59.138v34.412h-59.138v25.59h-66.238v-25.59h-59.139v-34.412h59.139v-16.657h-59.139v-36.65h55.195l-84.17-136.07h71.4l49.673 89.656 50.217-89.656h71.4z" fill="#fff"/></svg>