<svg enable-background="new 0 0 64 64" height="512" viewBox="0 0 64 64" width="512" xmlns="http://www.w3.org/2000/svg"><g id="Layer_4"><path d="m60.21 10.91v42.18c0 3.93-3.2 7.12-7.12 7.12h-42.18c-3.92 0-7.12-3.19-7.12-7.12v-42.18c0-3.92 3.2-7.12 7.12-7.12h42.18c3.92 0 7.12 3.2 7.12 7.12z" fill="#81c996"/><g fill="#00a651"><path d="m47.31 40.88c-3.6 0-6.529 2.93-6.529 6.53s2.93 6.53 6.529 6.53c3.601 0 6.53-2.93 6.53-6.53s-2.93-6.53-6.53-6.53z"/><path d="m16.7 10.06c-3.6 0-6.53 2.93-6.53 6.53s2.93 6.53 6.53 6.53 6.53-2.93 6.53-6.53-2.93-6.53-6.53-6.53z"/><path d="m32 25.47c-3.6 0-6.53 2.93-6.53 6.53s2.93 6.53 6.53 6.53 6.53-2.93 6.53-6.53-2.93-6.53-6.53-6.53z"/></g></g></svg>