<svg id="Layer_1" height="512" viewBox="0 0 512 512" width="512" xmlns="http://www.w3.org/2000/svg" xmlns:xlink="http://www.w3.org/1999/xlink" data-name="Layer 1"><linearGradient id="Blue_2" gradientUnits="userSpaceOnUse" x1="6" x2="506" y1="256" y2="256"><stop offset="0" stop-color="#2bc4f3"/><stop offset=".5" stop-color="#00aeee"/><stop offset="1" stop-color="#0095da"/></linearGradient><linearGradient id="linear-gradient" gradientUnits="userSpaceOnUse" x1="159.648" x2="432.578" y1="160.021" y2="432.951"><stop offset="0"/><stop offset="1" stop-opacity="0"/></linearGradient><circle cx="256" cy="256" fill="url(#Blue_2)" r="250"/><path d="m505.437 272.612-170.669-170.67h-43.291l-3.6 26.864-26.863-26.864h-43.287l-10.876 81.251h-40.226v42.907l30.412 30.413-3.937 29.387h-37.725v42.908l28.21 28.211-7.1 53.041 95.424 95.424c125.16-7.865 225.321-107.807 233.528-232.872z" fill="url(#linear-gradient)" opacity=".49"/><path d="m345.375 328.806v-42.906h-35.229l8-59.8h38.475v-42.907h-32.728l10.875-81.251h-43.291l-10.877 81.251h-30.46l10.876-81.251h-43.289l-10.876 81.251h-40.226v42.907h34.483l-8 59.8h-37.733v42.908h31.986l-10.875 81.252h43.291l10.876-81.252h30.458l-10.875 81.252h43.292l10.872-81.254zm-78.52-42.906h-30.455l8-59.8h30.458z" fill="#fff"/></svg>