<svg id="Layer_1" height="512" viewBox="0 0 512 512" width="512" xmlns="http://www.w3.org/2000/svg" xmlns:xlink="http://www.w3.org/1999/xlink" data-name="Layer 1"><linearGradient id="Blue_2" gradientUnits="userSpaceOnUse" x1="6" x2="506" y1="256" y2="256"><stop offset="0" stop-color="#2bc4f3"/><stop offset=".5" stop-color="#00aeee"/><stop offset="1" stop-color="#0095da"/></linearGradient><linearGradient id="linear-gradient" gradientUnits="userSpaceOnUse" x1="168.678" x2="432.376" y1="169.458" y2="433.156"><stop offset="0"/><stop offset="1" stop-opacity="0"/></linearGradient><circle cx="256" cy="256" fill="url(#Blue_2)" r="250"/><path d="m496.893 323.048-166.818-166.818c-17.559-17.731-43.386-28.1-74.292-28.1-58.523 0-98.852 37.662-98.852 92.345 0 23.62 8.337 43.712 22.755 58.019l57.463 57.462c-9.6 16.026-19.2 32.06-28.685 47.916l113.355 113.353a250.458 250.458 0 0 0 175.074-174.177z" fill="url(#linear-gradient)" opacity=".49"/><path d="m355.069 220.155c0 25.568-7.8 50.873-28.523 85.854l-46.057 77.862h-72.025c16.419-27.451 33.2-55.441 49.678-82.985a108.849 108.849 0 0 1 -16.493 1.212c-49.909 0-84.718-33.421-84.718-81.624 0-54.683 40.329-92.345 98.852-92.345 58.854 0 99.286 37.606 99.286 92.026zm-62.5.319c0-21.072-15.286-35.491-36.57-35.491-21.5 0-36.571 14.419-36.571 35.491 0 21.282 15.072 35.862 36.571 35.862 21.286 0 36.572-14.58 36.572-35.862z" fill="#fff"/></svg>