<svg id="Layer_1" height="512" viewBox="0 0 512 512" width="512" xmlns="http://www.w3.org/2000/svg" xmlns:xlink="http://www.w3.org/1999/xlink" data-name="Layer 1"><linearGradient id="Blue_2" gradientUnits="userSpaceOnUse" x1="6" x2="506" y1="260.973" y2="260.973"><stop offset="0" stop-color="#2bc4f3"/><stop offset=".5" stop-color="#00aeee"/><stop offset="1" stop-color="#0095da"/></linearGradient><linearGradient id="linear-gradient" gradientUnits="userSpaceOnUse" x1="207.161" x2="433.127" y1="211.412" y2="437.377"><stop offset="0"/><stop offset="1" stop-opacity="0"/></linearGradient><circle cx="256" cy="260.973" fill="url(#Blue_2)" r="250"/><path d="m475.015 381.589-164.589-164.589-6.214 2.265-24.866-24.865h-46.691v33.889l-31.081-11.289-15.638 44.07 21.61 21.61-12.336 14.458 182.332 182.332a251.157 251.157 0 0 0 97.473-97.881z" fill="url(#linear-gradient)" opacity=".49"/><path d="m295.082 271.975 21.87 25.163-36.095 30.409-24.847-29.872-24.71 29.872-36.09-30.409 21.425-25.11-30.7-10.958 15.639-44.07 31.081 11.288v-33.888h46.691v33.927l31.08-11.327 15.638 44.071z" fill="#fff"/></svg>